<?xml version="1.0" encoding="UTF-8"?>
<svg xmlns="http://www.w3.org/2000/svg" xmlns:xlink="http://www.w3.org/1999/xlink" width="50pt" height="50pt" viewBox="0 0 50 50" version="1.1">
<g id="surface1">
<path style=" stroke:none;fill-rule:nonzero;fill:#282828;fill-opacity:1;" d="M 25 4.6875 C 13.800781 4.6875 4.6875 13.800781 4.6875 25 C 4.6875 36.199219 13.800781 45.3125 25 45.3125 C 36.199219 45.3125 45.3125 36.199219 45.3125 25 C 45.3125 13.800781 36.199219 4.6875 25 4.6875 Z M 25 7.8125 C 34.507813 7.8125 42.1875 15.492188 42.1875 25 C 42.1875 34.507813 34.507813 42.1875 25 42.1875 C 15.492188 42.1875 7.8125 34.507813 7.8125 25 C 7.8125 15.492188 15.492188 7.8125 25 7.8125 Z M 23.4375 17.1875 L 23.4375 23.4375 L 17.1875 23.4375 L 17.1875 26.5625 L 23.4375 26.5625 L 23.4375 32.8125 L 26.5625 32.8125 L 26.5625 26.5625 L 32.8125 26.5625 L 32.8125 23.4375 L 26.5625 23.4375 L 26.5625 17.1875 Z "/>
</g>
</svg>
