<?xml version="1.0" encoding="UTF-8"?>
<svg xmlns="http://www.w3.org/2000/svg" xmlns:xlink="http://www.w3.org/1999/xlink" width="50pt" height="50pt" viewBox="0 0 50 50" version="1.1">
<g id="surface1">
<path style=" stroke:none;fill-rule:nonzero;fill:#282828;fill-opacity:1;" d="M 22.917969 2.082031 L 22.917969 8.332031 L 16.667969 8.332031 L 16.667969 12.5 L 22.917969 12.5 L 22.917969 18.75 L 27.082031 18.75 L 27.082031 12.5 L 33.332031 12.5 L 33.332031 8.332031 L 27.082031 8.332031 L 27.082031 2.082031 Z M 9.195313 4.160156 L 2.089844 4.199219 L 2.117188 8.367188 L 6.429688 8.339844 L 13.289063 24.804688 L 10.792969 28.800781 C 9.960938 30.128906 9.921875 31.8125 10.675781 33.1875 C 11.441406 34.5625 12.890625 35.417969 14.460938 35.417969 L 39.582031 35.417969 L 39.582031 31.25 L 14.460938 31.25 L 14.324219 31.007813 L 16.78125 27.082031 L 32.332031 27.082031 C 33.847656 27.082031 35.238281 26.261719 35.976563 24.941406 L 44.546875 9.511719 L 40.910156 7.488281 L 32.332031 22.917969 L 17.007813 22.917969 Z M 14.582031 37.5 C 12.28125 37.5 10.417969 39.363281 10.417969 41.667969 C 10.417969 43.96875 12.28125 45.832031 14.582031 45.832031 C 16.886719 45.832031 18.75 43.96875 18.75 41.667969 C 18.75 39.363281 16.886719 37.5 14.582031 37.5 Z M 35.417969 37.5 C 33.113281 37.5 31.25 39.363281 31.25 41.667969 C 31.25 43.96875 33.113281 45.832031 35.417969 45.832031 C 37.71875 45.832031 39.582031 43.96875 39.582031 41.667969 C 39.582031 39.363281 37.71875 37.5 35.417969 37.5 Z "/>
</g>
</svg>
