<?xml version="1.0" encoding="utf-8"?>
<!-- Generator: Adobe Illustrator 21.0.0, SVG Export Plug-In . SVG Version: 6.00 Build 0)  -->
<svg version="1.1" id="Calque_1" xmlns="http://www.w3.org/2000/svg" xmlns:xlink="http://www.w3.org/1999/xlink" x="0px" y="0px"
	 viewBox="0 0 256 256" style="enable-background:new 0 0 256 256;" xml:space="preserve">
<style type="text/css">
	.st0{fill:#B32020;}
	.st1{display:none;fill:#FFFFFF;}
	.st2{fill:#FFFFFF;}
</style>
<title>best dist</title>
<path class="st0" d="M27.1,7.1H229c11,0,20,9,20,20V229c0,11-9,20-20,20H27.1c-11,0-20-9-20-20V27.1C7.1,16,16,7.1,27.1,7.1z"/>
<path class="st1" d="M195.9,78.5c-0.2,0.2-0.3,0.4-0.4,0.6c-0.8,1.8-2.4,2.3-4.1,2.3c-3.8,0-7.6,0-11.3,0c-0.9,0-1.9,0-2.8,0.1
	c-3.4,0.4-6.1,1.9-7.4,5.3c-0.5,1.3-0.9,2.7-1.3,4.1c-0.3,1-0.6,1.9-0.9,2.9c-0.4,1.2-0.7,2.5-1.1,3.7c-0.3,1.1-0.7,2.1-1,3.2
	s-0.5,1.9-0.8,2.8c-0.6,2.1-1.2,4.2-1.9,6.3c-0.3,1.1-0.6,2.2-0.9,3.2s-0.7,2.1-1,3.2s-0.6,2.1-0.9,3.1s-0.5,1.9-0.8,2.8
	c-0.3,1.1-0.7,2.2-1,3.3c-0.7,2.5-1.4,5.1-2.2,7.6c-0.3,1.1-0.8,2.2-1,3.3c-0.2,0.8-0.2,1.6-0.1,2.4c0.1,0.3,0.3,0.6,0.5,0.9
	c0.9,0.9,1.9,1.7,2.8,2.6c1.9,1.8,3.1,4.3,3.4,6.9c0.2,1.6,0.1,3.1-0.4,4.6c-0.9,3.4-3.3,6.3-6.5,7.8c-1.9,0.9-4.1,1.3-6.2,1.3H86
	c-0.9,0.1-1.8-0.1-2.5-0.5c-1.9-1.2-2.2-2.3-1.9-4.3c0.3-1.7,1.8-2.9,3.5-3c0.4,0,0.8,0,1.2,0h60.2c1.5,0,3.1-0.2,4.5-0.6
	c1.2-0.4,2.2-1.3,2.7-2.4c0.4-1.1,0.4-2.2-0.2-3.2c-0.6-1-1.5-1.8-2.6-2.3c-1-0.5-2.1-0.8-3.2-0.8c-0.8-0.1-1.6-0.3-2.5-0.4
	c-2-0.3-3.9-0.5-5.9-0.8c-0.8-0.1-1.6-0.3-2.5-0.5c-1.5-0.3-3-0.5-4.5-0.7c-2-0.3-4-0.5-6-0.8c-2.5-0.4-5-0.8-7.5-1.2
	c-1.9-0.3-3.9-0.5-5.8-0.8s-4.1-0.7-6.2-1s-3.9-0.5-5.8-0.8c-0.3,0-0.7-0.1-1-0.2c-2.4-0.4-4.9-0.7-7.3-1.1s-4.6-0.8-6.9-1.1
	c-0.7-0.1-1.4-0.2-2.1-0.3c-1.1-0.1-2.2-0.5-3.1-1.1c-1.1-0.8-1.8-1.9-2-3.2c-0.3-1.4-0.7-2.7-1-4c-0.5-1.8-1-3.6-1.5-5.3
	c-0.6-1.9-1.2-3.9-1.7-5.8c-0.5-1.7-1-3.4-1.5-5.1c-0.4-1.3-0.8-2.5-1.2-3.8c-0.3-1-0.6-2.1-0.8-3.1s-0.7-2.3-1-3.4
	c-0.5-1.3-0.6-2.7-0.3-4c0.2-1,1-1.9,2.1-2.1c1-0.3,2.1-0.5,3.2-0.5c26.2,0,52.4,0,78.6,0c0.5,0,1,0.1,1.4,0.2
	c1.3,0.2,2.5,0,3.7-0.4c1-0.5,1.7-1.4,1.9-2.5c0.2-0.8,0.4-1.6,0.6-2.3c0.5-1.8,1-3.6,1.6-5.3c0.5-1.7,1.3-3.4,2.3-4.8
	c1.3-1.8,3-3.2,5.1-4.1c2-0.8,4.2-1.3,6.4-1.3c5.2,0,10.3,0,15.5-0.1c1.2-0.1,2.3,0.4,3.1,1.3C195.8,75.8,196.2,77.2,195.9,78.5z
	 M118.7,114.3c1.6,0.1,3,0.2,4.4,0.3c1.6,0.1,3.3,0.2,4.9,0.2h0.1c1.9,0.2,3.9,0.3,5.9,0.2c0.8,0,1-0.2,1.1-1
	c0.2-1.6,0.4-3.2,0.7-4.8c0.3-1.9,0.7-3.8,1.1-5.8c0.2-0.9-0.1-1.3-1.1-1.3h-16.1c-0.9,0-1.1,0.3-1.1,1.2c0,3.3,0,6.7,0,10.1
	C118.6,113.7,118.6,114,118.7,114.3L118.7,114.3z M156.7,102.7c-0.4-0.4-0.9-0.6-1.4-0.5h-12.9c-0.2,0-0.4,0-0.6,0c-0.6,0-1,0.4-1,1
	c-0.2,1.6-0.4,3.2-0.7,4.8c-0.4,2.1-0.7,4.1-1.1,6.2c-0.1,0.8,0.1,1.2,1,1.2c1.6,0.1,3.2,0.2,4.8,0.2c2.2,0.1,4.5,0.2,6.7,0.2
	c0.8,0.2,1.7-0.4,1.8-1.2v-0.1c0.5-1.6,1-3.1,1.4-4.7c0.6-1.8,1.2-3.7,1.7-5.5C156.5,103.8,156.6,103.2,156.7,102.7L156.7,102.7z
	 M114.2,114c0.1-0.5,0.2-1.1,0.2-1.6c0-2.9,0-5.9,0-8.8c0-1.1-0.2-1.3-1.3-1.3H97.5c-0.3,0-0.6,0-0.9,0.1c-0.2,0.4-0.2,0.9-0.1,1.4
	c0.2,1.4,0.5,2.8,0.7,4.1s0.4,2.5,0.7,3.8c0.1,0.2,0.2,0.5,0.3,0.6c0.5,0.6,1.2,1,2,1c0.9,0.1,1.7,0.2,2.6,0.2
	c2.7,0.1,5.4,0.2,8.1,0.3c0.4,0,0.9,0.1,1.3,0.1S113.4,114,114.2,114z M120.5,122.3h-0.6c-1.3,0-1.5,0.2-1.5,1.4c0,2.4,0,4.8,0,7.2
	c0,1.2,0.5,1.9,1.9,2.2s3.1,0.6,4.6,0.8c0.6,0.1,1.3,0.1,1.9,0.2c1.3,0.2,2.5,0.4,3.8,0.6c0.4,0.1,0.9-0.1,1-0.6V134
	c0.2-1.1,0.4-2.1,0.6-3.2c0.4-2.2,0.7-4.5,1-6.7c0.1-0.8,0-1.1-0.8-1.3c-0.5-0.1-1-0.2-1.6-0.2c-1.8,0-3.6,0-5.3-0.1
	S122.1,122.4,120.5,122.3L120.5,122.3z M150.1,124.3c-0.4-0.4-1-0.5-1.6-0.5c-0.4,0-0.8,0-1.3-0.1c-1.2-0.1-2.4-0.3-3.6-0.3
	c-1.6-0.1-3.1-0.2-4.7-0.2c-0.2,0-0.5,0-0.7,0c-0.4,0-0.8,0.3-0.8,0.7c-0.2,0.7-0.4,1.5-0.5,2.2c-0.3,1.7-0.5,3.4-0.8,5.1
	c-0.1,0.8-0.3,1.6-0.4,2.5c-0.2,0.6-0.2,1.3,0.2,1.9c1.7,0.3,3.4,0.6,5.1,0.9c1.1,0.2,2.3,0.3,3.4,0.5c0.8,0.3,1.7-0.1,2.2-0.8
	c0.3-0.4,0.6-0.9,0.7-1.5c0.3-1,0.5-1.9,0.8-2.9c0.6-2,1.2-4.1,1.7-6.1C149.9,125.3,150,124.8,150.1,124.3L150.1,124.3z M78.6,102
	c-0.2,0.4-0.3,0.9-0.1,1.3c0.2,0.4,0.3,0.8,0.4,1.3c0.3,1,0.5,2,0.8,3c0.3,1.2,0.8,2.4,1.1,3.6c0.1,0.6,0.6,1,1.2,1.2
	c0.5,0.1,1.1,0.2,1.7,0.2c1.8,0.1,3.6,0.2,5.4,0.3c1.3,0.1,2.6,0.1,3.9,0.2c0.8,0,1.1-0.3,0.9-1.1c-0.2-1.1-0.3-2.1-0.5-3.2
	c-0.3-1.6-0.5-3.2-0.8-4.8c-0.2-1-1.1-1.7-2.1-1.8c-2.4-0.1-4.9-0.2-7.3-0.2c-1.2,0-2.4,0-3.7,0C79.3,102,79,102,78.6,102z
	 M114.2,132.1c0.1-0.4,0.1-0.7,0.2-1.1c0-2.6,0-5.1,0-7.6c0-0.2,0-0.4,0-0.6c0-0.3-0.3-0.6-0.6-0.6c-0.6-0.1-1.2-0.2-1.9-0.2
	c-1.7-0.1-3.5-0.2-5.2-0.2h-0.3l-6-0.2c-0.4-0.1-0.7,0.2-0.8,0.5c0.5,2.7,0.8,5.4,1.5,8.1C102.3,130.6,113,132.3,114.2,132.1
	L114.2,132.1z M83.9,120.8c0,0.3-0.1,0.3-0.1,0.4c0.6,1.8,1.1,3.7,1.7,5.5c0.3,0.8,1,1.3,1.8,1.5l8.4,1.4c0.8,0.1,1.1-0.2,0.9-1
	c-0.3-1.6-0.5-3.2-0.8-4.8c-0.1-0.7-0.3-1.3-0.4-1.9c-0.1-0.4-0.5-0.8-0.9-0.7c-1.4,0-2.8-0.1-4.2-0.2h-0.8
	c-1.6-0.1-3.2-0.2-4.8-0.2C84.5,120.6,84.2,120.7,83.9,120.8L83.9,120.8z"/>
<path class="st1" d="M110.3,176.2c0.1,2.8-0.9,5.5-2.7,7.6c-1.3,1.6-2.9,2.8-4.8,3.6c-1.7,0.8-3.7,1.1-5.6,0.8
	c-0.9-0.2-1.7-0.4-2.5-0.8c-3.7-1.3-6.4-4.5-7.3-8.3c-0.3-1.3-0.5-2.6-0.3-3.9c0.3-3.5,2.1-6.6,5-8.6c2.3-1.6,5.2-2.3,8-1.9
	c3.8,0.5,7.1,2.8,8.8,6.1C109.9,172.5,110.3,174.4,110.3,176.2z M102.5,176.6c-0.2-2.7-3.1-4.8-5.2-3.6c-0.9,0.5-1.6,1.2-2.1,2
	c-0.5,0.9-0.5,1.9-0.1,2.8c0.4,0.9,1,1.6,1.8,2c0.6,0.3,1.2,0.5,1.9,0.5c1.1-0.1,2.1-0.7,2.7-1.6C102.1,178,102.4,177.3,102.5,176.6
	z"/>
<path class="st1" d="M151.1,176.2c0.2,3.3-1.1,6.6-3.6,8.8c-1.3,1.3-2.8,2.2-4.6,2.6c-0.1,0-0.1,0-0.2,0c-1.4,0.8-3,0.5-4.5,0.5
	c-0.1,0-0.2,0-0.3,0c-3.9-1.1-7.2-3.1-8.9-7.1c-1.2-2.7-1.4-5.7-0.5-8.4c1.9-5.7,7.7-9,13.6-7.8c2.8,0.6,5.2,2.2,6.8,4.5
	C150.5,171.4,151.3,173.8,151.1,176.2z M143.4,176.4c0-2.1-1.7-3.8-3.8-3.8c-2,0.1-3.6,1.8-3.7,3.9c0.1,2.1,1.8,3.8,3.9,3.7
	C141.8,180.1,143.4,178.4,143.4,176.4L143.4,176.4z"/>
<g>
	<g>
		<path class="st2" d="M175.6,96H82.9c-3.1,0-4,0.8-4,4v93.2c0,3.2,0.9,4.1,4,4.1h92.9c3.2,0,4.1-0.9,4.1-4v-93.1
			C179.9,96.8,179.1,96,175.6,96z M163.7,181.4h-17.2v-7.9c-5.2,6.5-12.4,9.7-21.7,9.7c-8.9,0-16.5-3.4-22.9-10.2
			c-6.4-6.8-9.5-15.2-9.5-25c0-9.9,3.2-18.2,9.5-25c6.3-6.8,14-10.2,22.9-10.2c9.3,0,16.6,3.2,21.7,9.7v-7.9h17.2V181.4z"/>
		<path class="st2" d="M146.5,148.1c0,5.5-1.8,10-5.3,13.5c-3.5,3.5-7.9,5.3-13.3,5.3c-5.3,0-9.8-1.8-13.2-5.3
			c-3.5-3.5-5.2-8-5.2-13.5c0-5.5,1.8-10,5.2-13.5c3.4-3.5,7.9-5.3,13.2-5.3c5.3,0,9.8,1.8,13.3,5.3
			C144.7,138,146.5,142.5,146.5,148.1z"/>
		<path class="st0" d="M146.5,114.7v7.9c-5.2-6.5-12.4-9.7-21.7-9.7c-8.9,0-16.5,3.4-22.9,10.2c-6.4,6.8-9.5,15.2-9.5,25
			c0,9.9,3.2,18.2,9.5,25c6.3,6.8,14,10.2,22.9,10.2c9.3,0,16.6-3.2,21.7-9.7v7.9h17.2v-66.7H146.5z M141.2,161.6
			c-3.5,3.5-7.9,5.3-13.3,5.3c-5.3,0-9.8-1.8-13.2-5.3c-3.5-3.5-5.2-8-5.2-13.5c0-5.5,1.8-10,5.2-13.5c3.4-3.5,7.9-5.3,13.2-5.3
			c5.3,0,9.8,1.8,13.3,5.3c3.5,3.5,5.3,8,5.3,13.5C146.5,153.6,144.7,158.1,141.2,161.6z"/>
	</g>
	<path class="st2" d="M107.9,87.4c-2.8,0-5.5,0-8.4,0C99,76.3,103,67.2,112.1,60.9c10.3-7.2,21.3-7.6,32.2-1.5
		c10.1,5.6,16.1,17.2,14.9,28.1c-2.7,0-5.5,0-8.4,0c0.3-7.5-2.1-13.9-8-18.7c-4.1-3.3-8.8-4.9-14-4.8
		C118.2,64,107.2,73.1,107.9,87.4z"/>
</g>
</svg>
