<?xml version="1.0" encoding="UTF-8"?>
<svg xmlns="http://www.w3.org/2000/svg" xmlns:xlink="http://www.w3.org/1999/xlink" width="50pt" height="50pt" viewBox="0 0 50 50" version="1.1">
<g id="surface1">
<path style=" stroke:none;fill-rule:nonzero;fill:#282828;fill-opacity:1;" d="M 25 4.167969 C 23.273438 4.167969 21.875 5.566406 21.875 7.292969 L 21.875 8.742188 C 16.488281 10.132813 12.5 15.007813 12.5 20.832031 L 12.5 33.332031 L 8.332031 37.5 L 8.332031 39.582031 L 21.394531 39.582031 C 21.027344 40.21875 20.832031 40.933594 20.832031 41.667969 C 20.832031 43.96875 22.695313 45.832031 25 45.832031 C 27.304688 45.832031 29.167969 43.96875 29.167969 41.667969 C 29.167969 40.933594 28.972656 40.21875 28.605469 39.582031 L 41.667969 39.582031 L 41.667969 37.5 L 37.5 33.332031 L 37.5 20.832031 C 37.5 15.007813 33.511719 10.132813 28.125 8.742188 L 28.125 7.292969 C 28.125 5.566406 26.726563 4.167969 25 4.167969 Z M 25 12.5 C 29.597656 12.5 33.332031 16.234375 33.332031 20.832031 L 33.332031 35.058594 L 33.691406 35.417969 L 16.308594 35.417969 L 16.667969 35.058594 L 16.667969 20.832031 C 16.667969 16.234375 20.402344 12.5 25 12.5 Z "/>
</g>
</svg>
