<?xml version="1.0" encoding="UTF-8"?>
<svg xmlns="http://www.w3.org/2000/svg" xmlns:xlink="http://www.w3.org/1999/xlink" width="50pt" height="50pt" viewBox="0 0 50 50" version="1.1">
<g id="surface1">
<path style=" stroke:none;fill-rule:nonzero;fill:#444B54;fill-opacity:1;" d="M 25.898438 10.976563 C 25.585938 10.585938 25.078125 10.429688 24.609375 10.625 L 5.859375 17.265625 C 5.585938 17.34375 5.390625 17.539063 5.234375 17.773438 L 0.546875 25.585938 C 0.273438 26.015625 0.3125 26.5625 0.625 26.914063 C 0.898438 27.1875 1.210938 27.34375 1.5625 27.34375 C 1.679688 27.34375 1.835938 27.304688 1.953125 27.265625 L 20.703125 20.625 C 20.976563 20.546875 21.171875 20.351563 21.328125 20.117188 L 26.015625 12.304688 C 26.25 11.914063 26.210938 11.367188 25.898438 10.976563 Z "/>
<path style=" stroke:none;fill-rule:nonzero;fill:#FFFFFF;fill-opacity:1;" d="M 43.75 18.359375 L 25 11.71875 L 6.25 18.359375 L 6.25 41.796875 L 25 48.4375 L 43.75 41.796875 Z "/>
<path style=" stroke:none;fill-rule:nonzero;fill:#FFFFFF;fill-opacity:1;" d="M 43.75 18.359375 L 25 11.71875 L 6.25 18.359375 L 6.25 41.796875 L 25 48.4375 L 43.75 41.796875 Z "/>
<path style=" stroke:none;fill-rule:nonzero;fill:#FFFFFF;fill-opacity:1;" d="M 43.75 18.359375 L 25 11.71875 "/>
<path style=" stroke:none;fill-rule:nonzero;fill:#444B54;fill-opacity:1;" d="M 25 49.609375 C 24.882813 49.609375 24.726563 49.570313 24.609375 49.53125 L 5.859375 42.890625 C 5.390625 42.734375 5.078125 42.265625 5.078125 41.796875 L 5.078125 18.359375 C 5.078125 17.851563 5.390625 17.421875 5.859375 17.265625 L 24.609375 10.625 C 25.234375 10.390625 25.898438 10.742188 26.09375 11.328125 C 26.328125 11.953125 25.976563 12.617188 25.390625 12.8125 L 7.421875 19.179688 L 7.421875 40.976563 L 25.390625 47.34375 C 26.015625 47.578125 26.328125 48.242188 26.09375 48.828125 C 25.9375 49.296875 25.46875 49.609375 25 49.609375 Z "/>
<path style=" stroke:none;fill-rule:nonzero;fill:#FFFFFF;fill-opacity:1;" d="M 43.75 18.359375 L 25 11.71875 "/>
<path style=" stroke:none;fill-rule:nonzero;fill:#FFFFFF;fill-opacity:1;" d="M 43.75 18.359375 L 25 11.71875 "/>
<path style=" stroke:none;fill-rule:nonzero;fill:#FFFFFF;fill-opacity:1;" d="M 25 25 L 6.25 18.359375 "/>
<path style=" stroke:none;fill-rule:nonzero;fill:#FFFFFF;fill-opacity:1;" d="M 48.4375 26.171875 L 29.6875 32.8125 L 25 25 L 43.75 18.359375 Z "/>
<path style=" stroke:none;fill-rule:nonzero;fill:#444B54;fill-opacity:1;" d="M 49.453125 25.585938 L 44.765625 17.773438 C 44.765625 17.773438 44.726563 17.734375 44.726563 17.734375 C 44.726563 17.695313 44.6875 17.695313 44.6875 17.65625 C 44.6875 17.617188 44.648438 17.617188 44.648438 17.578125 C 44.648438 17.578125 44.648438 17.578125 44.648438 17.539063 C 44.609375 17.5 44.609375 17.5 44.570313 17.460938 C 44.570313 17.460938 44.53125 17.421875 44.53125 17.421875 C 44.53125 17.421875 44.492188 17.382813 44.492188 17.382813 C 44.492188 17.382813 44.453125 17.382813 44.453125 17.382813 C 44.453125 17.382813 44.414063 17.34375 44.414063 17.34375 C 44.375 17.304688 44.335938 17.304688 44.296875 17.304688 C 44.257813 17.304688 44.257813 17.265625 44.21875 17.265625 L 25.46875 10.625 C 25.390625 10.585938 25.3125 10.585938 25.234375 10.585938 C 25.234375 10.585938 25.195313 10.585938 25.195313 10.585938 C 25.117188 10.585938 25.039063 10.585938 25 10.585938 C 24.960938 10.585938 24.960938 10.585938 24.921875 10.585938 C 24.84375 10.585938 24.765625 10.625 24.6875 10.625 L 5.9375 17.265625 C 5.46875 17.421875 5.15625 17.890625 5.15625 18.359375 L 5.15625 41.796875 C 5.15625 42.304688 5.46875 42.734375 5.9375 42.890625 L 24.6875 49.53125 C 24.726563 49.53125 24.765625 49.570313 24.804688 49.570313 C 24.84375 49.570313 24.84375 49.570313 24.882813 49.570313 C 24.921875 49.570313 24.960938 49.570313 25.039063 49.570313 C 25.039063 49.570313 25.078125 49.570313 25.078125 49.570313 C 25.15625 49.570313 25.195313 49.570313 25.273438 49.570313 C 25.273438 49.570313 25.3125 49.570313 25.3125 49.570313 C 25.351563 49.570313 25.390625 49.53125 25.429688 49.53125 L 44.179688 42.890625 C 44.648438 42.734375 44.960938 42.265625 44.960938 41.796875 L 44.960938 28.671875 L 48.867188 27.304688 C 49.179688 27.1875 49.453125 26.914063 49.570313 26.601563 C 49.6875 26.289063 49.609375 25.859375 49.453125 25.585938 Z M 40.234375 18.359375 L 26.171875 23.359375 L 26.171875 13.359375 Z M 7.421875 20 L 23.828125 25.820313 L 23.828125 46.757813 L 7.421875 40.9375 Z M 42.578125 40.976563 L 26.171875 46.796875 L 26.171875 29.21875 L 28.671875 33.398438 C 28.90625 33.789063 29.296875 33.984375 29.6875 33.984375 C 29.804688 33.984375 29.960938 33.945313 30.078125 33.90625 L 42.578125 29.492188 Z M 30.195313 31.40625 L 26.71875 25.625 L 43.203125 19.765625 L 46.679688 25.546875 Z "/>
</g>
</svg>
