<svg id="Calque_1" data-name="Calque 1" xmlns="http://www.w3.org/2000/svg" viewBox="0 0 90 22"><title>btn-app_store</title><rect x="-1.08" y="-1.58" width="97.33" height="26.83" style="fill:#333"/><path d="M19.23,6.84c-2.81,2.23-2.57,5.61.49,7.47a5.83,5.83,0,0,1-.82,1.86,16.22,16.22,0,0,1-1.34,1.93,2.4,2.4,0,0,1-3.18.75,4.26,4.26,0,0,0-3.63,0,2.28,2.28,0,0,1-3.16-.75,11.79,11.79,0,0,1-2.85-6.32,6.84,6.84,0,0,1,.64-4.19A4.4,4.4,0,0,1,8.93,5.1a3,3,0,0,1,1.64.25,3.84,3.84,0,0,0,3.58,0A4.27,4.27,0,0,1,19.23,6.84Z" style="fill:#fff"/><path d="M12.24,4.8A4,4,0,0,1,15.8.58,3.66,3.66,0,0,1,12.24,4.8Z" style="fill:#fff"/><text transform="translate(26.66 7.26)" style="font-size:7.704970836639404px;fill:#fff;font-family:MyriadPro-Regular, Myriad Pro"><tspan style="letter-spacing:-0.07097690719339889em">T</tspan><tspan x="3.28" y="0">élécha</tspan><tspan x="24.26" y="0" style="letter-spacing:-0.007984902059257375em">r</tspan><tspan x="26.72" y="0">ger dans</tspan></text><text transform="translate(26.03 18.9)" style="font-size:12.4669189453125px;fill:#fff;font-family:MyriadPro-Regular, Myriad Pro"><tspan style="letter-spacing:0.0059924213494697886em">l</tspan><tspan x="3.02" y="0" style="letter-spacing:-0.08996465254726865em">’</tspan><tspan x="4.48" y="0" style="letter-spacing:-0.003015793751040351em">A</tspan><tspan x="12.07" y="0" style="letter-spacing:-0.00003916615261091365em">pp </tspan><tspan x="28.9" y="0" style="letter-spacing:-0.0029766275984294374em">S</tspan><tspan x="35.01" y="0" style="letter-spacing:-0.005953255196858875em">t</tspan><tspan x="39.06" y="0" style="letter-spacing:-0.0000783323052218273em">o</tspan><tspan x="45.9" y="0" style="letter-spacing:-0.009948202763172067em">r</tspan><tspan x="49.85" y="0">e</tspan></text></svg>