<?xml version="1.0" encoding="UTF-8"?>
<svg xmlns="http://www.w3.org/2000/svg" xmlns:xlink="http://www.w3.org/1999/xlink" width="30pt" height="30pt" viewBox="0 0 30 30" version="1.1">
<g id="surface1">
<path style=" stroke:none;fill-rule:nonzero;fill:#424242;fill-opacity:1;" d="M 15 4.6875 L 14.707031 4.953125 L 4.015625 15.761719 L 3.367188 16.40625 L 4.015625 17.078125 L 12.917969 25.984375 L 13.59375 26.632813 L 14.238281 25.984375 L 25.046875 15.292969 L 25.3125 15 L 25.3125 4.6875 Z M 15.789063 6.5625 L 23.4375 6.5625 L 23.4375 14.210938 L 13.59375 23.992188 L 6.007813 16.40625 Z M 20.625 8.4375 C 20.109375 8.4375 19.6875 8.859375 19.6875 9.375 C 19.6875 9.890625 20.109375 10.3125 20.625 10.3125 C 21.140625 10.3125 21.5625 9.890625 21.5625 9.375 C 21.5625 8.859375 21.140625 8.4375 20.625 8.4375 Z "/>
</g>
</svg>
