<?xml version="1.0" encoding="UTF-8"?>
<svg xmlns="http://www.w3.org/2000/svg" xmlns:xlink="http://www.w3.org/1999/xlink" width="30pt" height="30pt" viewBox="0 0 30 30" version="1.1">
<g id="surface1">
<path style=" stroke:none;fill-rule:nonzero;fill:#424242;fill-opacity:1;" d="M 9.421875 2.960938 C 5.320313 2.960938 1.972656 6.304688 1.972656 10.40625 C 1.972656 14.09375 4.835938 17.847656 7.558594 20.84375 C 10.28125 23.835938 13 26.023438 13 26.023438 C 13.007813 26.027344 13.015625 26.035156 13.027344 26.042969 C 13.464844 26.375 14.015625 26.589844 14.613281 26.628906 C 14.675781 26.640625 14.742188 26.644531 14.800781 26.644531 C 14.863281 26.644531 14.925781 26.640625 14.988281 26.628906 C 14.992188 26.628906 14.996094 26.628906 15 26.628906 C 15.597656 26.585938 16.144531 26.371094 16.578125 26.042969 C 16.589844 26.035156 16.597656 26.027344 16.605469 26.023438 C 16.605469 26.023438 19.324219 23.835938 22.046875 20.84375 C 24.765625 17.847656 27.632813 14.09375 27.632813 10.40625 C 27.632813 6.304688 24.285156 2.960938 20.183594 2.960938 C 17.605469 2.960938 15.777344 4.378906 14.800781 5.386719 C 13.828125 4.378906 12 2.960938 9.421875 2.960938 Z M 9.421875 4.933594 C 12.117188 4.933594 13.753906 7.148438 13.917969 7.378906 C 14.089844 7.707031 14.429688 7.910156 14.796875 7.910156 C 14.800781 7.910156 14.8125 7.910156 14.816406 7.910156 C 14.828125 7.90625 14.835938 7.90625 14.84375 7.90625 C 14.867188 7.90625 14.894531 7.902344 14.917969 7.902344 C 15.242188 7.863281 15.53125 7.671875 15.679688 7.378906 C 15.839844 7.164063 17.480469 4.933594 20.183594 4.933594 C 23.222656 4.933594 25.65625 7.371094 25.65625 10.40625 C 25.65625 12.976563 23.191406 16.648438 20.585938 19.511719 C 17.988281 22.371094 15.402344 24.457031 15.382813 24.46875 C 15.210938 24.597656 15.019531 24.671875 14.800781 24.671875 C 14.585938 24.671875 14.394531 24.597656 14.21875 24.46875 C 14.203125 24.457031 11.617188 22.371094 9.019531 19.511719 C 6.414063 16.648438 3.949219 12.976563 3.949219 10.40625 C 3.949219 7.371094 6.382813 4.933594 9.421875 4.933594 Z "/>
</g>
</svg>
