<?xml version="1.0" encoding="UTF-8"?>
<svg xmlns="http://www.w3.org/2000/svg" xmlns:xlink="http://www.w3.org/1999/xlink" width="50pt" height="50pt" viewBox="0 0 50 50" version="1.1">
<g id="surface1">
<path style=" stroke:none;fill-rule:nonzero;fill:#282828;fill-opacity:1;" d="M 7.8125 7.8125 L 7.8125 42.1875 L 19.628906 42.1875 L 23.875 46.4375 L 25 47.507813 L 26.125 46.4375 L 30.371094 42.1875 L 42.1875 42.1875 L 42.1875 7.8125 Z M 10.9375 10.9375 L 39.0625 10.9375 L 39.0625 39.0625 L 29.054688 39.0625 L 28.5625 39.5 L 25 43.066406 L 21.433594 39.5 L 20.945313 39.0625 L 10.9375 39.0625 Z M 15.625 17.1875 L 15.625 20.3125 L 18.75 20.3125 L 18.75 17.1875 Z M 21.875 17.1875 L 21.875 20.3125 L 34.375 20.3125 L 34.375 17.1875 Z M 15.625 23.4375 L 15.625 26.5625 L 18.75 26.5625 L 18.75 23.4375 Z M 21.875 23.4375 L 21.875 26.5625 L 34.375 26.5625 L 34.375 23.4375 Z M 15.625 29.6875 L 15.625 32.8125 L 18.75 32.8125 L 18.75 29.6875 Z M 21.875 29.6875 L 21.875 32.8125 L 34.375 32.8125 L 34.375 29.6875 Z "/>
</g>
</svg>
