<?xml version="1.0" encoding="UTF-8"?>
<svg xmlns="http://www.w3.org/2000/svg" xmlns:xlink="http://www.w3.org/1999/xlink" width="55pt" height="55pt" viewBox="0 0 55 55" version="1.1">
<g id="surface1">
<path style=" stroke:none;fill-rule:nonzero;fill:#282828;fill-opacity:1;" d="M 10.117188 4.574219 L 2.300781 4.617188 L 2.328125 9.203125 L 7.070313 9.175781 L 14.617188 27.285156 L 11.871094 31.679688 C 10.957031 33.148438 10.914063 35 11.746094 36.515625 C 12.585938 38.019531 14.179688 38.957031 15.90625 38.957031 L 43.542969 38.957031 L 43.542969 34.375 L 15.90625 34.375 L 15.753906 34.105469 L 18.457031 29.792969 L 35.566406 29.792969 C 37.238281 29.792969 38.769531 28.886719 39.574219 27.429688 L 47.839844 12.570313 C 48.234375 11.859375 48.222656 10.992188 47.804688 10.292969 C 47.390625 9.597656 46.640625 9.167969 45.832031 9.167969 L 12.03125 9.167969 Z M 13.9375 13.75 L 41.929688 13.75 L 35.566406 25.207031 L 18.710938 25.207031 Z M 16.042969 41.25 C 13.507813 41.25 11.457031 43.300781 11.457031 45.832031 C 11.457031 48.367188 13.507813 50.417969 16.042969 50.417969 C 18.574219 50.417969 20.625 48.367188 20.625 45.832031 C 20.625 43.300781 18.574219 41.25 16.042969 41.25 Z M 38.957031 41.25 C 36.425781 41.25 34.375 43.300781 34.375 45.832031 C 34.375 48.367188 36.425781 50.417969 38.957031 50.417969 C 41.492188 50.417969 43.542969 48.367188 43.542969 45.832031 C 43.542969 43.300781 41.492188 41.25 38.957031 41.25 Z "/>
</g>
</svg>
