<?xml version="1.0" encoding="UTF-8"?>
<svg xmlns="http://www.w3.org/2000/svg" xmlns:xlink="http://www.w3.org/1999/xlink" width="50pt" height="50pt" viewBox="0 0 50 50" version="1.1">
<g id="surface1">
<path style=" stroke:none;fill-rule:nonzero;fill:#282828;fill-opacity:1;" d="M 24.707031 0.960938 C 24.664063 0.96875 24.625 0.980469 24.585938 0.992188 C 24.125 1.097656 23.796875 1.511719 23.808594 1.984375 L 23.808594 3.96875 L 18.847656 3.96875 C 18.816406 3.96875 18.789063 3.96875 18.757813 3.96875 C 18.683594 3.980469 18.609375 4.003906 18.539063 4.03125 L 15.5625 5.023438 C 15.160156 5.152344 14.886719 5.53125 14.882813 5.953125 C 14.882813 5.992188 14.882813 6.039063 14.882813 6.078125 L 10.695313 6.976563 C 10.316406 7.015625 9.992188 7.269531 9.863281 7.628906 C 9.734375 7.992188 9.828125 8.394531 10.09375 8.664063 C 10.367188 8.933594 10.769531 9.027344 11.128906 8.898438 L 14.941406 8.058594 C 15.242188 14.363281 16.707031 21.085938 16.835938 21.671875 C 16.835938 21.703125 16.835938 21.730469 16.835938 21.761719 C 16.726563 22.136719 12.503906 36.792969 10.945313 45.449219 C 10.847656 45.980469 11.191406 46.488281 11.71875 46.597656 C 11.71875 46.597656 16.785156 47.617188 24.800781 47.617188 C 32.78125 47.617188 37.882813 46.597656 37.882813 46.597656 C 38.410156 46.488281 38.757813 45.980469 38.660156 45.449219 C 37.097656 36.792969 32.878906 22.136719 32.769531 21.761719 C 32.859375 21.355469 34.359375 14.453125 34.660156 8.058594 L 38.472656 8.898438 C 38.832031 9.027344 39.238281 8.933594 39.507813 8.664063 C 39.777344 8.394531 39.867188 7.992188 39.742188 7.628906 C 39.613281 7.269531 39.289063 7.015625 38.90625 6.976563 L 34.722656 6.078125 C 34.722656 6.039063 34.722656 5.992188 34.722656 5.953125 C 34.71875 5.53125 34.441406 5.152344 34.039063 5.023438 L 31.0625 4.03125 C 30.964844 3.992188 30.859375 3.972656 30.753906 3.96875 L 25.792969 3.96875 L 25.792969 1.984375 C 25.804688 1.699219 25.6875 1.421875 25.484375 1.226563 C 25.273438 1.03125 24.992188 0.933594 24.707031 0.960938 Z M 18.972656 5.953125 L 30.628906 5.953125 L 32.675781 6.632813 C 32.566406 12.546875 31.203125 19.5625 30.910156 21.019531 C 29.730469 21.277344 26.933594 21.824219 24.800781 21.824219 C 22.671875 21.824219 19.871094 21.277344 18.695313 21.019531 C 18.398438 19.5625 17.035156 12.546875 16.925781 6.632813 Z M 18.570313 23.003906 C 19.929688 23.300781 22.53125 23.808594 24.800781 23.808594 C 27.074219 23.808594 29.671875 23.300781 31.03125 23.003906 C 31.683594 25.289063 34.984375 36.984375 36.488281 44.796875 C 35.292969 45.007813 31.457031 45.636719 24.800781 45.636719 C 18.125 45.636719 14.316406 45.007813 13.113281 44.796875 C 14.617188 36.984375 17.917969 25.289063 18.570313 23.003906 Z "/>
</g>
</svg>
