<?xml version="1.0" encoding="UTF-8"?>
<svg xmlns="http://www.w3.org/2000/svg" xmlns:xlink="http://www.w3.org/1999/xlink" width="50pt" height="50pt" viewBox="0 0 50 50" version="1.1">
<g id="surface1">
<path style=" stroke:none;fill-rule:nonzero;fill:#282828;fill-opacity:1;" d="M 14.582031 2.082031 L 14.582031 6.25 L 18.75 6.25 L 18.75 2.082031 Z M 22.917969 2.082031 L 22.917969 6.25 L 27.082031 6.25 L 27.082031 2.082031 Z M 31.25 2.082031 L 31.25 6.25 L 35.417969 6.25 L 35.417969 2.082031 Z M 14.582031 10.417969 C 12.304688 10.417969 10.417969 12.304688 10.417969 14.582031 L 10.417969 35.417969 C 10.417969 37.695313 12.304688 39.582031 14.582031 39.582031 L 35.417969 39.582031 C 37.695313 39.582031 39.582031 37.695313 39.582031 35.417969 L 39.582031 14.582031 C 39.582031 12.304688 37.695313 10.417969 35.417969 10.417969 Z M 2.082031 14.582031 L 2.082031 18.75 L 6.25 18.75 L 6.25 14.582031 Z M 14.582031 14.582031 L 35.417969 14.582031 L 35.417969 35.417969 L 14.582031 35.417969 Z M 43.75 14.582031 L 43.75 18.75 L 47.917969 18.75 L 47.917969 14.582031 Z M 18.75 18.75 L 18.75 31.25 L 31.25 31.25 L 31.25 18.75 Z M 2.082031 22.917969 L 2.082031 27.082031 L 6.25 27.082031 L 6.25 22.917969 Z M 22.917969 22.917969 L 27.082031 22.917969 L 27.082031 27.082031 L 22.917969 27.082031 Z M 43.75 22.917969 L 43.75 27.082031 L 47.917969 27.082031 L 47.917969 22.917969 Z M 2.082031 31.25 L 2.082031 35.417969 L 6.25 35.417969 L 6.25 31.25 Z M 43.75 31.25 L 43.75 35.417969 L 47.917969 35.417969 L 47.917969 31.25 Z M 14.582031 43.75 L 14.582031 47.917969 L 18.75 47.917969 L 18.75 43.75 Z M 22.917969 43.75 L 22.917969 47.917969 L 27.082031 47.917969 L 27.082031 43.75 Z M 31.25 43.75 L 31.25 47.917969 L 35.417969 47.917969 L 35.417969 43.75 Z "/>
</g>
</svg>
