<?xml version="1.0" encoding="UTF-8"?>
<svg xmlns="http://www.w3.org/2000/svg" xmlns:xlink="http://www.w3.org/1999/xlink" width="30pt" height="30pt" viewBox="0 0 30 30" version="1.1">
<g id="surface1">
<path style=" stroke:none;fill-rule:nonzero;fill:#FFC107;fill-opacity:1;" d="M 27.257813 12.550781 L 26.25 12.550781 L 26.25 12.5 L 15 12.5 L 15 17.5 L 22.0625 17.5 C 21.035156 20.410156 18.265625 22.5 15 22.5 C 10.859375 22.5 7.5 19.140625 7.5 15 C 7.5 10.859375 10.859375 7.5 15 7.5 C 16.910156 7.5 18.652344 8.222656 19.976563 9.398438 L 23.511719 5.863281 C 21.277344 3.78125 18.292969 2.5 15 2.5 C 8.097656 2.5 2.5 8.097656 2.5 15 C 2.5 21.902344 8.097656 27.5 15 27.5 C 21.902344 27.5 27.5 21.902344 27.5 15 C 27.5 14.160156 27.414063 13.34375 27.257813 12.550781 Z "/>
<path style=" stroke:none;fill-rule:nonzero;fill:#FF3D00;fill-opacity:1;" d="M 3.941406 9.183594 L 8.046875 12.195313 C 9.160156 9.441406 11.851563 7.5 15 7.5 C 16.910156 7.5 18.652344 8.222656 19.976563 9.398438 L 23.511719 5.863281 C 21.277344 3.78125 18.292969 2.5 15 2.5 C 10.199219 2.5 6.035156 5.210938 3.941406 9.183594 Z "/>
<path style=" stroke:none;fill-rule:nonzero;fill:#4CAF50;fill-opacity:1;" d="M 15 27.5 C 18.230469 27.5 21.164063 26.265625 23.378906 24.253906 L 19.511719 20.980469 C 18.257813 21.933594 16.695313 22.5 15 22.5 C 11.75 22.5 8.988281 20.425781 7.949219 17.535156 L 3.871094 20.675781 C 5.941406 24.722656 10.140625 27.5 15 27.5 Z "/>
<path style=" stroke:none;fill-rule:nonzero;fill:#1976D2;fill-opacity:1;" d="M 27.257813 12.550781 L 26.25 12.550781 L 26.25 12.5 L 15 12.5 L 15 17.5 L 22.0625 17.5 C 21.570313 18.898438 20.671875 20.105469 19.511719 20.980469 L 23.378906 24.253906 C 23.105469 24.503906 27.5 21.25 27.5 15 C 27.5 14.160156 27.414063 13.34375 27.257813 12.550781 Z "/>
</g>
</svg>
