<svg id="Calque_1" data-name="Calque 1" xmlns="http://www.w3.org/2000/svg" viewBox="0 0 50 50"><title>ic_order</title><path d="M8.49,42.29v-.58q0-13.24,0-26.49a1.57,1.57,0,0,1,.29-.87c1.64-2.23,3.31-4.43,5-6.65a.88.88,0,0,1,.8-.4q11.43,0,22.87,0a.88.88,0,0,1,.8.4c1.67,2.25,3.36,4.48,5,6.73a1.16,1.16,0,0,1,.23.64q0,13.42,0,26.84c0,.12,0,.23,0,.37Zm31.85-25.4H11.65v.58q0,10.52,0,21c0,.66,0,.66.67.66H39.67c.67,0,.67,0,.67-.66q0-10.52,0-21ZM38.7,13.65c-.13-.2-.22-.34-.31-.47-.56-.75-1.14-1.48-1.67-2.25a1,1,0,0,0-1-.49q-9.7,0-19.41,0a1.2,1.2,0,0,0-1.13.58c-.51.74-1.07,1.44-1.61,2.17-.09.13-.17.27-.3.46Z" style="fill:#282828"/><path d="M26,23.2H21.39a1.58,1.58,0,1,1,0-3.15h9.26a1.58,1.58,0,0,1,1.65,1.23,1.54,1.54,0,0,1-.91,1.79,2.19,2.19,0,0,1-.79.13Z" style="fill:#282828"/></svg>