<?xml version="1.0" encoding="UTF-8"?>
<svg xmlns="http://www.w3.org/2000/svg" xmlns:xlink="http://www.w3.org/1999/xlink" width="50pt" height="50pt" viewBox="0 0 50 50" version="1.1">
<g id="surface1">
<path style=" stroke:none;fill-rule:nonzero;fill:#282828;fill-opacity:1;" d="M 34.375 3.125 C 27.488281 3.125 21.875 8.738281 21.875 15.625 C 21.875 16.734375 22.167969 17.738281 22.4375 18.726563 L 21.679688 19.484375 L 15.625 13.414063 L 15.625 8.507813 L 14.890625 8.054688 L 7.59375 3.492188 L 3.492188 7.519531 L 8.496094 15.625 L 13.414063 15.625 L 19.484375 21.679688 L 8.082031 33.082031 C 5.652344 35.511719 5.652344 39.488281 8.082031 41.917969 C 10.511719 44.347656 14.488281 44.347656 16.917969 41.917969 L 25 33.835938 L 33.082031 41.917969 C 35.511719 44.347656 39.488281 44.347656 41.917969 41.917969 C 44.347656 39.488281 44.347656 35.511719 41.917969 33.082031 L 36.71875 27.878906 C 42.492188 26.78125 46.875 21.703125 46.875 15.625 C 46.875 13.539063 46.3125 11.597656 45.433594 9.898438 L 44.445313 8.007813 L 42.945313 9.519531 L 36.230469 16.222656 L 33.777344 13.769531 L 41.992188 5.542969 L 40.101563 4.566406 C 38.402344 3.6875 36.460938 3.125 34.375 3.125 Z M 34.375 6.25 C 35.082031 6.25 35.691406 6.59375 36.363281 6.761719 L 29.359375 13.769531 L 36.230469 20.640625 L 43.25 13.636719 C 43.40625 14.304688 43.75 14.917969 43.75 15.625 C 43.75 20.824219 39.574219 25 34.375 25 C 33.300781 25 32.273438 24.78125 31.25 24.414063 L 30.320313 24.097656 L 14.710938 39.710938 C 13.476563 40.941406 11.523438 40.941406 10.289063 39.710938 C 9.058594 38.476563 9.058594 36.523438 10.289063 35.289063 L 25.902344 19.679688 L 25.585938 18.75 C 25.21875 17.726563 25 16.699219 25 15.625 C 25 10.425781 29.175781 6.25 34.375 6.25 Z M 8.03125 7.445313 L 12.5 10.242188 L 12.5 12.242188 L 12.242188 12.5 L 10.253906 12.5 L 7.457031 7.996094 Z M 31.273438 27.5625 C 31.589844 27.648438 31.910156 27.722656 32.226563 27.808594 L 39.710938 35.289063 C 40.941406 36.523438 40.941406 38.476563 39.710938 39.710938 C 38.476563 40.941406 36.523438 40.941406 35.289063 39.710938 L 27.210938 31.628906 Z "/>
</g>
</svg>
