<?xml version="1.0" encoding="UTF-8"?>
<svg xmlns="http://www.w3.org/2000/svg" xmlns:xlink="http://www.w3.org/1999/xlink" width="50pt" height="50pt" viewBox="0 0 50 50" version="1.1">
<g id="surface1">
<path style=" stroke:none;fill-rule:nonzero;fill:#282828;fill-opacity:1;" d="M 11.78125 0 C 11.308594 0.0898438 10.96875 0.507813 10.976563 0.992188 L 10.976563 48.609375 C 10.976563 49.15625 11.421875 49.601563 11.964844 49.601563 L 21.144531 49.601563 C 21.648438 49.605469 22.074219 49.234375 22.136719 48.734375 L 24.800781 24.707031 L 27.46875 48.734375 C 27.53125 49.234375 27.957031 49.605469 28.460938 49.601563 L 37.636719 49.601563 C 38.183594 49.601563 38.628906 49.15625 38.628906 48.609375 L 38.628906 0.992188 C 38.628906 0.445313 38.183594 0 37.636719 0 L 11.964844 0 C 11.9375 0 11.90625 0 11.875 0 C 11.84375 0 11.8125 0 11.78125 0 Z M 12.957031 1.984375 L 36.644531 1.984375 L 36.644531 3.96875 L 30.941406 3.96875 C 30.808594 3.941406 30.667969 3.941406 30.535156 3.96875 L 19.035156 3.96875 C 18.902344 3.941406 18.765625 3.941406 18.632813 3.96875 L 12.957031 3.96875 Z M 12.957031 5.953125 L 17.824219 5.953125 C 17.601563 9.210938 16.285156 10.851563 15.003906 11.78125 C 14.21875 12.355469 13.484375 12.605469 12.957031 12.742188 Z M 19.777344 5.953125 L 29.824219 5.953125 C 30.074219 9.789063 31.710938 12.117188 33.421875 13.363281 C 34.691406 14.289063 35.957031 14.613281 36.644531 14.757813 L 36.644531 47.617188 L 29.359375 47.617188 L 25.792969 15.53125 C 25.785156 14.988281 25.34375 14.554688 24.800781 14.554688 C 24.257813 14.554688 23.816406 14.988281 23.808594 15.53125 L 20.246094 47.617188 L 12.957031 47.617188 L 12.957031 14.757813 C 13.644531 14.613281 14.910156 14.289063 16.183594 13.363281 C 17.890625 12.117188 19.527344 9.789063 19.777344 5.953125 Z M 31.777344 5.953125 L 36.644531 5.953125 L 36.644531 12.742188 C 36.117188 12.605469 35.386719 12.355469 34.597656 11.78125 C 33.320313 10.851563 32 9.210938 31.777344 5.953125 Z "/>
</g>
</svg>
