<?xml version="1.0" encoding="UTF-8"?>
<svg xmlns="http://www.w3.org/2000/svg" xmlns:xlink="http://www.w3.org/1999/xlink" width="50pt" height="50pt" viewBox="0 0 50 50" version="1.1">
<g id="surface1">
<path style=" stroke:none;fill-rule:nonzero;fill:#282828;fill-opacity:1;" d="M 37.203125 3.96875 C 34.199219 3.96875 31.746094 6.421875 31.746094 9.425781 C 31.746094 12.429688 34.199219 14.882813 37.203125 14.882813 C 40.207031 14.882813 42.660156 12.429688 42.660156 9.425781 C 42.660156 6.421875 40.207031 3.96875 37.203125 3.96875 Z M 37.203125 5.953125 C 39.132813 5.953125 40.675781 7.496094 40.675781 9.425781 C 40.675781 11.355469 39.132813 12.898438 37.203125 12.898438 C 35.273438 12.898438 33.730469 11.355469 33.730469 9.425781 C 33.730469 7.496094 35.273438 5.953125 37.203125 5.953125 Z M 26.289063 9.921875 C 25.300781 9.921875 24.421875 10.289063 23.691406 10.824219 C 23.59375 10.863281 23.5 10.917969 23.417969 10.984375 L 15.015625 17.753906 C 14.90625 17.839844 14.820313 17.949219 14.757813 18.074219 C 13.660156 18.984375 12.898438 20.296875 12.898438 21.824219 C 12.898438 23.292969 13.609375 24.558594 14.621094 25.460938 C 14.699219 25.613281 14.8125 25.742188 14.953125 25.839844 L 15.015625 25.882813 C 15.058594 25.914063 15.105469 25.949219 15.167969 25.988281 L 22.351563 30.878906 L 20.898438 39.5 C 20.898438 39.511719 20.894531 39.535156 20.894531 39.527344 C 20.894531 39.535156 20.894531 39.542969 20.894531 39.550781 L 20.878906 39.648438 C 20.867188 39.707031 20.863281 39.769531 20.863281 39.832031 C 20.863281 39.835938 20.863281 39.835938 20.863281 39.839844 C 20.847656 39.945313 20.832031 40.03125 20.832031 40.179688 C 20.832031 42.085938 22.398438 43.652344 24.304688 43.652344 C 26.089844 43.652344 27.5625 42.277344 27.746094 40.546875 L 27.734375 40.613281 L 29.714844 29.292969 C 29.726563 29.226563 29.730469 29.160156 29.730469 29.09375 C 29.730469 29.09375 29.730469 29.09375 29.730469 29.089844 C 29.742188 28.988281 29.761719 28.894531 29.761719 28.769531 C 29.761719 27.921875 29.347656 27.199219 28.773438 26.65625 C 28.703125 26.527344 28.605469 26.414063 28.488281 26.324219 L 24.148438 23.121094 L 28.207031 19.527344 L 31.328125 23.582031 C 31.417969 23.699219 31.53125 23.796875 31.667969 23.867188 C 32.207031 24.410156 32.90625 24.800781 33.730469 24.800781 L 41.667969 24.800781 C 43.296875 24.800781 44.644531 23.457031 44.644531 21.824219 C 44.644531 20.195313 43.296875 18.847656 41.667969 18.847656 L 35.21875 18.847656 L 29.980469 11.875 L 30.011719 11.925781 C 29.210938 10.71875 27.839844 9.921875 26.289063 9.921875 Z M 26.289063 11.90625 C 27.160156 11.90625 27.914063 12.347656 28.355469 13.019531 C 28.367188 13.035156 28.378906 13.050781 28.390625 13.066406 L 33.933594 20.4375 C 34.117188 20.6875 34.414063 20.832031 34.722656 20.832031 L 41.667969 20.832031 C 42.230469 20.832031 42.660156 21.261719 42.660156 21.824219 C 42.660156 22.386719 42.230469 22.816406 41.667969 22.816406 L 33.730469 22.816406 C 33.398438 22.816406 33.113281 22.660156 32.929688 22.402344 C 32.835938 22.273438 32.714844 22.171875 32.570313 22.101563 L 32.757813 22.195313 L 29.128906 17.472656 C 28.964844 17.257813 28.714844 17.117188 28.441406 17.09375 C 28.164063 17.066406 27.894531 17.15625 27.6875 17.332031 L 21.914063 22.445313 C 21.6875 22.648438 21.566406 22.933594 21.578125 23.234375 C 21.59375 23.535156 21.738281 23.8125 21.980469 23.992188 L 27.097656 27.761719 L 27 27.535156 C 27.074219 27.699219 27.191406 27.847656 27.34375 27.949219 C 27.605469 28.128906 27.777344 28.421875 27.777344 28.769531 C 27.777344 28.804688 27.773438 28.859375 27.757813 28.941406 C 27.722656 29.132813 27.746094 29.335938 27.828125 29.519531 L 27.710938 29.25 L 25.78125 40.269531 C 25.777344 40.289063 25.773438 40.308594 25.773438 40.332031 C 25.691406 41.089844 25.085938 41.667969 24.304688 41.667969 C 23.472656 41.667969 22.816406 41.011719 22.816406 40.179688 C 22.816406 40.152344 22.824219 40.078125 22.84375 39.953125 C 22.84375 39.925781 22.847656 39.898438 22.847656 39.871094 L 22.847656 39.867188 C 22.851563 39.863281 22.851563 39.859375 22.851563 39.851563 C 22.875 39.351563 22.519531 38.910156 22.027344 38.828125 L 22.996094 38.992188 L 22.859375 39.828125 L 24.414063 30.578125 C 24.480469 30.195313 24.316406 29.8125 23.996094 29.589844 L 16.503906 24.496094 L 16.503906 25.015625 C 16.503906 24.722656 16.378906 24.453125 16.164063 24.261719 C 16.160156 24.261719 16.160156 24.261719 16.15625 24.257813 C 16.136719 24.242188 16.121094 24.226563 16.101563 24.210938 C 15.363281 23.671875 14.882813 22.808594 14.882813 21.824219 C 14.882813 20.789063 15.398438 19.890625 16.195313 19.359375 C 16.464844 19.175781 16.628906 18.863281 16.628906 18.539063 L 16.628906 19.003906 L 24.316406 12.804688 L 23.882813 12.734375 C 24.171875 12.78125 24.46875 12.699219 24.691406 12.507813 C 25.136719 12.128906 25.675781 11.90625 26.289063 11.90625 Z M 10.914063 27.777344 C 5.996094 27.777344 1.984375 31.789063 1.984375 36.707031 C 1.984375 41.625 5.996094 45.636719 10.914063 45.636719 C 15.832031 45.636719 19.839844 41.625 19.839844 36.707031 C 19.839844 31.789063 15.832031 27.777344 10.914063 27.777344 Z M 38.691406 27.777344 C 33.773438 27.777344 29.761719 31.789063 29.761719 36.707031 C 29.761719 41.625 33.773438 45.636719 38.691406 45.636719 C 43.609375 45.636719 47.617188 41.625 47.617188 36.707031 C 47.617188 31.789063 43.609375 27.777344 38.691406 27.777344 Z M 10.914063 29.761719 C 14.761719 29.761719 17.855469 32.859375 17.855469 36.707031 C 17.855469 40.554688 14.761719 43.652344 10.914063 43.652344 C 7.066406 43.652344 3.96875 40.554688 3.96875 36.707031 C 3.96875 32.859375 7.066406 29.761719 10.914063 29.761719 Z M 38.691406 29.761719 C 42.539063 29.761719 45.636719 32.859375 45.636719 36.707031 C 45.636719 40.554688 42.539063 43.652344 38.691406 43.652344 C 34.84375 43.652344 31.746094 40.554688 31.746094 36.707031 C 31.746094 32.859375 34.84375 29.761719 38.691406 29.761719 Z "/>
</g>
</svg>
