<?xml version="1.0" encoding="UTF-8"?>
<svg xmlns="http://www.w3.org/2000/svg" xmlns:xlink="http://www.w3.org/1999/xlink" width="50pt" height="50pt" viewBox="0 0 50 50" version="1.1">
<g id="surface1">
<path style=" stroke:none;fill-rule:nonzero;fill:#282828;fill-opacity:1;" d="M 24.800781 1.984375 C 12.21875 1.984375 1.984375 12.21875 1.984375 24.800781 C 1.984375 37.382813 12.21875 47.617188 24.800781 47.617188 C 37.382813 47.617188 47.617188 37.382813 47.617188 24.800781 C 47.617188 12.21875 37.382813 1.984375 24.800781 1.984375 Z M 32.449219 25.503906 L 22.527344 35.421875 C 22.332031 35.617188 22.082031 35.714844 21.824219 35.714844 C 21.570313 35.714844 21.316406 35.617188 21.125 35.421875 C 20.738281 35.035156 20.738281 34.410156 21.125 34.019531 L 30.34375 24.800781 L 21.125 15.582031 C 20.738281 15.195313 20.738281 14.566406 21.125 14.179688 C 21.511719 13.792969 22.140625 13.792969 22.527344 14.179688 L 32.449219 24.101563 C 32.835938 24.488281 32.835938 25.117188 32.449219 25.503906 Z "/>
</g>
</svg>
