<?xml version="1.0" encoding="UTF-8"?>
<svg xmlns="http://www.w3.org/2000/svg" xmlns:xlink="http://www.w3.org/1999/xlink" width="50pt" height="50pt" viewBox="0 0 50 50" version="1.1">
<g id="surface1">
<path style=" stroke:none;fill-rule:nonzero;fill:#282828;fill-opacity:1;" d="M 24.800781 1.984375 C 12.21875 1.984375 1.984375 12.21875 1.984375 24.800781 C 1.984375 37.382813 12.21875 47.617188 24.800781 47.617188 C 37.382813 47.617188 47.617188 37.382813 47.617188 24.800781 C 47.617188 12.21875 37.382813 1.984375 24.800781 1.984375 Z M 28.480469 34.019531 C 28.867188 34.410156 28.867188 35.035156 28.480469 35.421875 C 28.285156 35.617188 28.035156 35.714844 27.777344 35.714844 C 27.523438 35.714844 27.269531 35.617188 27.078125 35.421875 L 17.15625 25.503906 C 16.769531 25.117188 16.769531 24.488281 17.15625 24.101563 L 27.078125 14.179688 C 27.464844 13.792969 28.089844 13.792969 28.480469 14.179688 C 28.867188 14.566406 28.867188 15.195313 28.480469 15.582031 L 19.261719 24.800781 Z "/>
</g>
</svg>
