<?xml version="1.0" encoding="UTF-8"?>
<svg xmlns="http://www.w3.org/2000/svg" xmlns:xlink="http://www.w3.org/1999/xlink" width="30pt" height="30pt" viewBox="0 0 30 30" version="1.1">
<g id="surface1">
<path style=" stroke:none;fill-rule:nonzero;fill:#424242;fill-opacity:1;" d="M 14.773438 0 L 9.089844 3.410156 L 14.773438 6.816406 L 14.773438 4.546875 C 20.402344 4.546875 25 9.144531 25 14.773438 C 25 20.402344 20.402344 25 14.773438 25 C 9.144531 25 4.546875 20.402344 4.546875 14.773438 C 4.546875 11.984375 5.546875 9.578125 7.386719 7.742188 L 5.789063 6.144531 C 3.535156 8.398438 2.273438 11.425781 2.273438 14.773438 C 2.273438 21.644531 7.902344 27.273438 14.773438 27.273438 C 21.644531 27.273438 27.273438 21.644531 27.273438 14.773438 C 27.273438 7.902344 21.644531 2.273438 14.773438 2.273438 Z M 12.394531 7.457031 L 10.332031 8.453125 L 13.210938 14.132813 C 13.128906 14.328125 13.066406 14.550781 13.066406 14.773438 C 13.066406 14.792969 13.066406 14.820313 13.066406 14.84375 L 9.410156 18.5 L 11.042969 20.136719 L 14.703125 16.476563 C 14.722656 16.476563 14.75 16.476563 14.773438 16.476563 C 15.714844 16.476563 16.476563 15.714844 16.476563 14.773438 C 16.476563 13.988281 15.957031 13.339844 15.234375 13.140625 Z "/>
</g>
</svg>
