<?xml version="1.0" encoding="UTF-8"?>
<svg xmlns="http://www.w3.org/2000/svg" xmlns:xlink="http://www.w3.org/1999/xlink" width="50pt" height="50pt" viewBox="0 0 50 50" version="1.1">
<g id="surface1">
<path style=" stroke:none;fill-rule:nonzero;fill:#282828;fill-opacity:1;" d="M 11.414063 6.25 L 7.289063 17.253906 L 10.632813 17.253906 L 13.585938 9.375 L 36.417969 9.375 L 39.375 17.253906 L 42.707031 17.253906 L 38.582031 6.25 Z M 3.125 18.75 L 3.125 28.125 L 5.089844 28.125 L 9.777344 43.75 L 40.226563 43.75 L 44.914063 28.125 L 46.875 28.125 L 46.875 18.75 Z M 6.25 21.875 L 43.75 21.875 L 43.75 25 L 42.585938 25 L 37.898438 40.625 L 12.097656 40.625 L 7.410156 25 L 6.25 25 Z M 17.1875 26.5625 L 17.1875 37.5 L 20.3125 37.5 L 20.3125 26.5625 Z M 23.4375 26.5625 L 23.4375 37.5 L 26.5625 37.5 L 26.5625 26.5625 Z M 29.6875 26.5625 L 29.6875 37.5 L 32.8125 37.5 L 32.8125 26.5625 Z "/>
</g>
</svg>
