<svg id="Calque_1" data-name="Calque 1" xmlns="http://www.w3.org/2000/svg" viewBox="0 0 50 50"><defs><style>.cls-1{fill:#2e2e2e;}</style></defs><title>icon_side9</title><path class="cls-1" d="M46.79,17.53a18.83,18.83,0,0,0-6-8.42,8.25,8.25,0,0,0-9.26-1,12.64,12.64,0,0,1-5.24,1.35A15.13,15.13,0,0,1,18.47,8.2C15,6.44,11.71,6.87,8.54,9.48a18.34,18.34,0,0,0-5,6.77A34,34,0,0,0,.74,32.62a17.31,17.31,0,0,0,1,5.51,5.1,5.1,0,0,0,5.72,3.56A6.67,6.67,0,0,0,9.76,41c1-.47,1.91-1,2.87-1.48.73-.39,1.46-.78,2.2-1.15l1.41-.72c1.68-.86,3.41-1.74,5.16-2.49a9,9,0,0,1,7,0c1.36.54,2.76,1.18,4.3,2,1,.51,2,1,2.93,1.58,1.45.79,2.94,1.6,4.46,2.32a6.94,6.94,0,0,0,3,.71,5.09,5.09,0,0,0,2.17-.46,5.94,5.94,0,0,0,3.14-4.15,27.85,27.85,0,0,0,.75-6.61v0A34.27,34.27,0,0,0,46.79,17.53Zm-8.24-5.32A14.84,14.84,0,0,1,43,18.28a27.48,27.48,0,0,1,2.24,9.93,28.08,28.08,0,0,1-.35,7.22A7.14,7.14,0,0,1,44.33,37a1.27,1.27,0,0,1-1.66.84,9.11,9.11,0,0,1-2-.75c-1.36-.71-2.7-1.44-4-2.17l-2.78-1.52a23.24,23.24,0,0,0-6.67-2.51A13.65,13.65,0,0,0,18.7,32.1c-1.81.86-3.6,1.82-5.33,2.75-.9.48-1.8,1-2.71,1.44l-.17.09c-.83.43-1.68.87-2.53,1.21a2.39,2.39,0,0,1-1.9.16,2.14,2.14,0,0,1-.87-1.5,38.1,38.1,0,0,1-.63-4.13c0-.38-.09-.76-.13-1.15h.08v-.64c.07-5.58,1.09-10,3.22-13.86a13,13,0,0,1,3.63-4.34,4.6,4.6,0,0,1,5.23-.53c3.55,1.86,7.31,1.89,10.52,1.68a15.25,15.25,0,0,0,6.06-1.68A4.7,4.7,0,0,1,38.55,12.21Z"/><path class="cls-1" d="M15.53,22c0,.94,0,1.81,0,2.68,0,.23,0,.47,0,.7a1.19,1.19,0,1,1-2.37,0c0-.88,0-1.75,0-2.63,0-.23,0-.46,0-.76-1.17,0-2.26,0-3.34,0a1.36,1.36,0,0,1-1-.35,1.78,1.78,0,0,1-.26-1.21,1,1,0,0,1,1.13-.77h3.44c0-.76,0-1.47,0-2.19,0-.43,0-.86,0-1.28a1.18,1.18,0,1,1,2.36,0c0,.9,0,1.79,0,2.69,0,.23,0,.46,0,.78,1.12,0,2.18,0,3.24,0a1.51,1.51,0,0,1,1,.35,1.48,1.48,0,0,1,.28,1.19,1.39,1.39,0,0,1-1,.74,25.4,25.4,0,0,1-2.82,0Z"/><path class="cls-1" d="M38.68,24a2.33,2.33,0,1,1-2.32-2.33A2.33,2.33,0,0,1,38.68,24Z"/><path class="cls-1" d="M29.88,19.92a2.34,2.34,0,1,1,2.34-2.37A2.34,2.34,0,0,1,29.88,19.92Z"/><path class="cls-1" d="M29.85,21.72a2.36,2.36,0,1,1-2.35,2.39A2.39,2.39,0,0,1,29.85,21.72Z"/><path class="cls-1" d="M38.68,17.56a2.33,2.33,0,0,1-4.67.07,2.33,2.33,0,1,1,4.67-.07Z"/></svg>