<svg id="Calque_1" data-name="Calque 1" xmlns="http://www.w3.org/2000/svg" viewBox="0 0 50 50"><defs><style>.cls-1{fill:#2e2e2e;}</style></defs><title>icon_side5</title><path class="cls-1" d="M25.1,44.29c-7,0-14.09,0-21.13,0-1.36,0-2.13-.84-3.11-1.39a.84.84,0,0,1-.21-1.2c.23-.38.42-.79.63-1.18,1.66-3,3.29-6.11,5-9.13a6.25,6.25,0,0,0,.8-3.25c0-6.55,0-13.1,0-19.65,0-.25,0-.5,0-.74,0-2.14.35-2.46,2.54-2.46H40.27c.35,0,.7,0,1,0,1.1.09,1.51.49,1.59,1.56,0,.44,0,.89,0,1.34,0,6.75,0,13.49,0,20.24a5.21,5.21,0,0,0,.68,2.68c1.82,3.24,3.6,6.51,5.39,9.77.85,1.54.73,1.41-.62,2.55a3.72,3.72,0,0,1-2.7.81H25.1Zm0-36.15h0c-4.46,0-8.92,0-13.38,0-1.64,0-1.9.27-1.91,1.91q0,8.1,0,16.21c0,1.63.29,1.92,1.9,1.92H38.31c1.7,0,2-.29,2-2q0-8,0-16.06c0-1.7-.28-2-2-2Zm15,23.33c-1,0-1.85.12-2.73.12-4.05,0-8.1-.05-12.15-.07-2.27,0-4.54,0-6.82,0-2.52,0-5,0-7.56-.05a1.32,1.32,0,0,0-1.37.87c-.7,1.42-1.49,2.79-2.23,4.19-.33.63-.61,1.28-1,2H43.86Zm-14.9,7.8v2.51h4.33c-.93-2.66-1.22-2.86-3.81-2.66A3.18,3.18,0,0,0,25.2,39.27Zm-.44,2.52V39.1c-.85,0-1.63,0-2.39,0a1.24,1.24,0,0,0-.82.49c-.42.65-.75,1.35-1.19,2.18Z"/></svg>