<svg id="Calque_1" data-name="Calque 1" xmlns="http://www.w3.org/2000/svg" viewBox="0 0 50 50"><defs><style>.cls-1{fill:#2e2e2e;}</style></defs><title>icon_side4</title><path class="cls-1" d="M12.08,24.8q0-9.16,0-18.31a5.5,5.5,0,0,1,1.3-3.72A4,4,0,0,1,16.53,1.3c5.38,0,10.77,0,16.15,0A4.31,4.31,0,0,1,36.85,4a5.52,5.52,0,0,1,.53,2.45q0,18.41,0,36.83a5.1,5.1,0,0,1-2.31,4.52,3.69,3.69,0,0,1-2.07.6c-5.51,0-11,0-16.53,0a4.18,4.18,0,0,1-3.91-2.79,5.74,5.74,0,0,1-.48-2.43Q12.08,34,12.08,24.8Zm22.66-17a1.75,1.75,0,0,0-1.91-1.91c-6.48,0-10-.06-16.47-.06a2.31,2.31,0,0,0-.51,0A1.75,1.75,0,0,0,14.47,7.7q0,8.35,0,16.7,0,8.16,0,16.33a1.72,1.72,0,0,0,1.83,1.85c6.53,0,10.08.06,16.6.06a2.21,2.21,0,0,0,.57-.06,1.73,1.73,0,0,0,1.26-1.81M26.32,45a1.59,1.59,0,1,0-1.58,1.58A1.57,1.57,0,0,0,26.32,45ZM19.52,4.19v.17a2.62,2.62,0,0,0,.54.21,8,8,0,0,0,1.12.09h6c.58,0,1.16,0,1.74,0A1.44,1.44,0,0,0,30,4.25,2.08,2.08,0,0,0,29.52,4,8.09,8.09,0,0,0,28.3,3.9c-2.38,0-4.76,0-7.14,0a5.69,5.69,0,0,0-.92.07A5.6,5.6,0,0,0,19.52,4.19Zm14.73.09a.74.74,0,0,0-.74-.73.73.73,0,0,0-.72.75.73.73,0,1,0,1.46,0Z"/></svg>