<svg id="Calque_1" data-name="Calque 1" xmlns="http://www.w3.org/2000/svg" viewBox="0 0 50 50"><defs><style>.cls-1{fill:#2e2e2e;}</style></defs><title>icon_side1</title><path class="cls-1" d="M36.29,41.22a2.58,2.58,0,0,0-1.84-.77h0a2.64,2.64,0,0,0-.08,5.27h.08a2.61,2.61,0,0,0,2.63-2.6A2.69,2.69,0,0,0,36.29,41.22ZM35.23,43.9a1.11,1.11,0,0,1-.82.32,1.17,1.17,0,0,1-1.12-1.13A1.15,1.15,0,0,1,34.44,42h0a1.12,1.12,0,0,1,.78.33,1.17,1.17,0,0,1,.34.83A1.08,1.08,0,0,1,35.23,43.9Zm-14.5-2.6a2.63,2.63,0,0,0-1.84-.85A2.63,2.63,0,0,0,16.18,43a2.63,2.63,0,0,0,.76,1.9,2.59,2.59,0,0,0,1.84.78h0a2.65,2.65,0,0,0,2.65-2.53A2.61,2.61,0,0,0,20.73,41.3Zm-1.94,2.92a1.24,1.24,0,0,1-.78-.33,1.15,1.15,0,0,1,0-1.63,1.06,1.06,0,0,1,.81-.31,1.19,1.19,0,0,1,.8.38,1.11,1.11,0,0,1,.31.8A1.14,1.14,0,0,1,18.79,44.22Zm17.5-3a2.58,2.58,0,0,0-1.84-.77h0a2.64,2.64,0,0,0-.08,5.27h.08a2.61,2.61,0,0,0,2.63-2.6A2.69,2.69,0,0,0,36.29,41.22ZM35.23,43.9a1.11,1.11,0,0,1-.82.32,1.17,1.17,0,0,1-1.12-1.13A1.15,1.15,0,0,1,34.44,42h0a1.12,1.12,0,0,1,.78.33,1.17,1.17,0,0,1,.34.83A1.08,1.08,0,0,1,35.23,43.9ZM18.89,40.45A2.63,2.63,0,0,0,16.18,43a2.63,2.63,0,0,0,.76,1.9,2.59,2.59,0,0,0,1.84.78h0a2.65,2.65,0,0,0,2.65-2.53,2.68,2.68,0,0,0-2.56-2.74Zm-.1,3.77a1.24,1.24,0,0,1-.78-.33,1.15,1.15,0,0,1,0-1.63,1.06,1.06,0,0,1,.81-.31,1.19,1.19,0,0,1,.8.38,1.11,1.11,0,0,1,.31.8A1.14,1.14,0,0,1,18.79,44.22Zm17.5-3a2.58,2.58,0,0,0-1.84-.77h0a2.64,2.64,0,0,0-.08,5.27h.08a2.61,2.61,0,0,0,2.63-2.6A2.69,2.69,0,0,0,36.29,41.22ZM35.23,43.9a1.11,1.11,0,0,1-.82.32,1.17,1.17,0,0,1-1.12-1.13A1.15,1.15,0,0,1,34.44,42h0a1.12,1.12,0,0,1,.78.33,1.17,1.17,0,0,1,.34.83A1.08,1.08,0,0,1,35.23,43.9ZM18.89,40.45A2.63,2.63,0,0,0,16.18,43a2.63,2.63,0,0,0,.76,1.9,2.59,2.59,0,0,0,1.84.78h0a2.65,2.65,0,0,0,2.65-2.53,2.68,2.68,0,0,0-2.56-2.74Zm-.1,3.77a1.24,1.24,0,0,1-.78-.33,1.15,1.15,0,0,1,0-1.63,1.06,1.06,0,0,1,.81-.31,1.19,1.19,0,0,1,.8.38,1.11,1.11,0,0,1,.31.8A1.14,1.14,0,0,1,18.79,44.22Z"/><path class="cls-1" d="M37.46,30.49a.89.89,0,0,1-.07.2.68.68,0,0,1-.34,0c-5.5,0-11.24,0-17.07,0-.37,0-.36,0-.48-.34-2.21-6.48-4.59-13.33-7.27-21a2.89,2.89,0,0,0-1.34-1.67C8.7,6.81,6.42,5.91,4.1,5.08a2.3,2.3,0,0,0-2.16.52,2.3,2.3,0,0,0-.52,2.16A2.91,2.91,0,0,0,3,9.22c.86.37,1.73.71,2.61,1s1.6.62,2.39,1a1,1,0,0,1,.45.47c.56,1.5,1.09,3,1.61,4.53l5.37,15.51a2.59,2.59,0,0,0-.54.83c-.78,2.08-1.46,4-2.08,5.8a2,2,0,0,0,.16,1.78,2,2,0,0,0,1.42.82,4.85,4.85,0,0,0,1,5.71,5.18,5.18,0,0,0,3.56,1.45,4.42,4.42,0,0,0,2.77-.94,6.82,6.82,0,0,0,1.89-2.58,4.26,4.26,0,0,0-.18-3.6H30c-1,2.45-.52,4.4,1.32,6a4.93,4.93,0,0,0,6.24,0,5.09,5.09,0,0,0,1.81-2.91,4.76,4.76,0,0,0-.4-3.13l.39,0a1.89,1.89,0,0,0,0-3.7,4,4,0,0,0-.82-.06H17.29L18,35.09H38.82a2.28,2.28,0,0,0,2.27-1.75l2-6.25Q45,21.21,46.83,15.37a2.41,2.41,0,0,0-.19-2.22,2.41,2.41,0,0,0-2.09-.88c-1.47,0-2.93,0-4.4,0H24.21c-2.31,0-4.62,0-6.93,0a2.12,2.12,0,0,0-1.49.67,2,2,0,0,0-.56,1.43,2.11,2.11,0,0,0,1.71,2.12,4,4,0,0,0,.89.06h24M34.44,45.72h-.08a2.64,2.64,0,0,1,.08-5.27h0a2.58,2.58,0,0,1,1.84.77,2.69,2.69,0,0,1,.78,1.9,2.61,2.61,0,0,1-2.63,2.6Zm-15.66,0a2.59,2.59,0,0,1-1.84-.78,2.63,2.63,0,0,1-.76-1.9,2.63,2.63,0,0,1,2.71-2.59,2.64,2.64,0,0,1-.09,5.27Z"/></svg>