<svg id="Calque_1" data-name="Calque 1" xmlns="http://www.w3.org/2000/svg" viewBox="0 0 50 50"><defs><style>.cls-1{fill:#2e2e2e;}</style></defs><title>icon_side7</title><path class="cls-1" d="M48.82,17.2a10,10,0,0,0-7.07-9.56,5.67,5.67,0,0,1-3.52-2.86c-.25-.41-.52-.8-.8-1.19l-.25-.35a4.15,4.15,0,0,0-2.61-2.07,4.17,4.17,0,0,0-3,1.42C29.87,4,28.25,5.51,26.58,7L25,8.47,23.23,6.93c-1.86-1.65-3.69-3.25-5.53-4.85a3.27,3.27,0,0,0-2.53-1A3.26,3.26,0,0,0,13,2.64c-.4.57-.79,1.14-1.18,1.72-.51.76-1,1.55-1.59,2.29a1.94,1.94,0,0,1-.86.66C3.83,9,1.14,12.67,1.14,18.38q0,9.36,0,18.71v6.44c0,3.44.89,4.33,4.29,4.33H41.27c1.33,0,2.67,0,4,0,1.53,0,3.57-.38,3.58-3.37V40.4C48.87,32.8,48.89,24.94,48.82,17.2ZM45,36.16q0,3.24,0,6.46a1.3,1.3,0,0,1-.2.68l-.32.72H5.1L5,42.57c0-.37,0-.72-.06-1.06v-4c0-6.45,0-12.9,0-19.35a6.86,6.86,0,0,1,4.42-6.83,2.37,2.37,0,0,1,3.23,1.08c.71,1.2,1.45,2.39,2.19,3.57s1.39,2.24,2.06,3.38,1,1.17,1.09,1.17.41,0,1.17-1c1-1.37,2.14-2.71,3.29-4.12l1.63-2,.78-1,.78,1,1.64,2c1.16,1.41,2.26,2.73,3.3,4.11.6.79,1,1.08,1.24,1s.48-.08,1.15-1.21,1.34-2.22,2-3.33,1.49-2.4,2.2-3.63a2.52,2.52,0,0,1,3.41-1.14c2.8,1.12,4.37,3.17,4.4,5.77C45,23.39,45,29.88,45,36.16ZM14,8.37a10.92,10.92,0,0,1,.9-1.26c.15-.18.3-.38.47-.6L16,5.63,23,12l-4.86,5.46L16.51,15c-1-1.48-1.93-2.88-2.83-4.35C13.35,10.08,13.45,9.34,14,8.37ZM34,6.3a1.38,1.38,0,0,1,.6.43c2,2.62,2,3.06.16,5.87l-1.63,2.53L31.7,17.45l-5-5.4L33.3,5.94Z"/><path class="cls-1" d="M22.32,25.06c.73-.53,1.41-1.38,2.21-1.51a1.73,1.73,0,0,1,2,1.94,1.73,1.73,0,0,1-2.05,1.9c-.79-.15-1.45-1-2.18-1.56Z"/><path class="cls-1" d="M24,38.25c-.37-.49-1.21-1.16-1.36-2-.23-1.21.62-2,1.89-2a1.79,1.79,0,0,1,2,1.85C26.6,37.36,25.86,38.08,24,38.25Z"/></svg>