<svg id="Calque_1" data-name="Calque 1" xmlns="http://www.w3.org/2000/svg" viewBox="0 0 50 50"><defs><style>.cls-1{fill:#2e2e2e;}</style></defs><title>icon_side12</title><path class="cls-1" d="M25.07.44A24.56,24.56,0,1,1,.44,24.82,24.6,24.6,0,0,1,25.07.44ZM45.34,25A20.34,20.34,0,1,0,25,45.34,20.38,20.38,0,0,0,45.34,25Z"/><path class="cls-1" d="M29.2,25A4.2,4.2,0,1,1,25,20.8,4.17,4.17,0,0,1,29.2,25Z"/><path class="cls-1" d="M13.83,20.8a4.2,4.2,0,1,1-.07,8.4,4.2,4.2,0,1,1,.07-8.4Z"/><path class="cls-1" d="M36.2,29.2A4.2,4.2,0,1,1,40.42,25,4.17,4.17,0,0,1,36.2,29.2Z"/></svg>