<svg id="Calque_1" data-name="Calque 1" xmlns="http://www.w3.org/2000/svg" viewBox="0 0 50 50"><defs><style>.cls-1{fill:#2e2e2e;}</style></defs><title>icon_side11</title><path class="cls-1" d="M14.7,13.34A3,3,0,0,0,12,15.86a6,6,0,0,0-.11,1.29q0,9.09,0,18.18a6.33,6.33,0,0,0,0,.87,3.07,3.07,0,0,0,2.8,2.86h.07a3,3,0,0,0,2.7-2.36,7,7,0,0,0,.1-1.52c0-3,0-6,0-8.93h0c0-3.3,0-6.6,0-9.9a3,3,0,0,0-2.61-3Z"/><path class="cls-1" d="M36,13.34c-1.65,0-2.79,1.46-2.8,3.65,0,3.08,0,6.17,0,9.25,0,1.81,0,3.63,0,5.44,0,1.52,0,3.05.05,4.57a2.89,2.89,0,0,0,2.68,2.8H36a2.92,2.92,0,0,0,2.75-2.52,4.93,4.93,0,0,0,.1-1q0-9.31,0-18.61c0-2.15-1.15-3.59-2.81-3.62Z"/><path class="cls-1" d="M42.41,16.28a3,3,0,0,0-2.78,2.56A6.49,6.49,0,0,0,39.56,20q0,5.44,0,10.89c0,1.27,0,2.54,0,3.81a3,3,0,0,0,2.81,3h0a3,3,0,0,0,2.8-3.06c0-.33,0-.65,0-1q0-3.38,0-6.75h0c0-2.58,0-5.15,0-7.73a3,3,0,0,0-2.65-3Z"/><path class="cls-1" d="M8.33,16.29H8.28A3,3,0,0,0,5.6,18.61,6.57,6.57,0,0,0,5.51,20q0,4.79,0,9.58c0,1.74,0,3.48,0,5.22a3,3,0,0,0,2.16,2.82,2.78,2.78,0,0,0,.68.08,2.49,2.49,0,0,0,2.27-1.39,5.37,5.37,0,0,0,.53-2.18c.07-2.36,0-4.72,0-7.08s0-4.72,0-7.08a6.12,6.12,0,0,0-.18-1.5,2.83,2.83,0,0,0-2.67-2.23Z"/><path class="cls-1" d="M32.47,23.89H18.27v4.52H32.47V23.89Z"/><path class="cls-1" d="M4.31,23.18a2.84,2.84,0,0,0-2.87,1.6,3.67,3.67,0,0,0,.35,4,2.59,2.59,0,0,0,2.13,1.12,3.32,3.32,0,0,0,.93-.14V23.21l-.55,0Z"/><path class="cls-1" d="M46.81,23.18a3.71,3.71,0,0,0-.92.12v6.59a5.14,5.14,0,0,0,.61,0,2.93,2.93,0,0,0,2.72-1.54,3.88,3.88,0,0,0-.17-4,2.7,2.7,0,0,0-2.24-1.19Z"/></svg>