<svg id="Calque_1" data-name="Calque 1" xmlns="http://www.w3.org/2000/svg" viewBox="0 0 50 50"><defs><style>.cls-1{fill:#2e2e2e;}</style></defs><title>icon_side8</title><path class="cls-1" d="M48.44,28.79a7.73,7.73,0,0,0-2.86-5.26.73.73,0,0,1-.29-.44,21.65,21.65,0,0,0-7.86-11.55,21.28,21.28,0,0,0-8.65-3.88,23.13,23.13,0,0,0-2.85-.36,5.62,5.62,0,0,1,1.21-.71c.52-.22,1-.45,1.54-.69a1.65,1.65,0,0,0,.89-1.84,1.64,1.64,0,0,0-1.35-1.48,2.25,2.25,0,0,0-1,.06A10.38,10.38,0,0,0,24.1,4.11l-.68.49,0,0A9.78,9.78,0,0,0,18.47,1c-.4-.14-.81-.26-1.23-.37L16.59.44l-1,0-.2.13a1.73,1.73,0,0,0-1,1.59,1.67,1.67,0,0,0,1.09,1.68l.66.23A10.45,10.45,0,0,1,18.54,5a4.74,4.74,0,0,1,2.31,2.6,21.79,21.79,0,0,0-4.09,1.23,21.29,21.29,0,0,0-9.68,7.82,22.06,22.06,0,0,0-3,6.52.76.76,0,0,1-.27.38l-.18.18A8.89,8.89,0,0,0,2.45,25,7.56,7.56,0,0,0,1.27,32a7.94,7.94,0,0,0,3.6,4.53.83.83,0,0,1,.39.45A21.29,21.29,0,0,0,16.77,48a19.94,19.94,0,0,0,6.07,1.5l.54.06,2.35,0,.78-.1c.38,0,.76-.06,1.14-.12A21.62,21.62,0,0,0,33,47.84a21.35,21.35,0,0,0,9.93-8.57c.28-.46.53-.94.78-1.41s.34-.68.53-1a2.28,2.28,0,0,1,.38-.38l.52-.4a8.46,8.46,0,0,0,.9-.73A7.45,7.45,0,0,0,48.44,28.79ZM23.06,7.37l-.14.2s0-.06,0-.08ZM40.91,35.09a17.6,17.6,0,0,1-2.39,4.08,17.19,17.19,0,0,1-9.63,6.2,17.43,17.43,0,0,1-5.64.42A17.37,17.37,0,0,1,8.71,35.58l-.1-.2c0-.09-.08-.17-.11-.26A2.89,2.89,0,0,0,7,33.46a4.86,4.86,0,0,1-1.43-1,4.1,4.1,0,0,1-1-2.86,3.72,3.72,0,0,1,1.53-3.1,4.75,4.75,0,0,0,1.63-2.6,17.18,17.18,0,0,1,4.67-8,17.62,17.62,0,0,1,8-4.41,14.57,14.57,0,0,1,4-.51l.94,0c.72,0,1.4.06,2.08.14a15.41,15.41,0,0,1,4.22,1.21,17,17,0,0,1,9.49,10c.29.77.52,1.58.74,2.34a2.59,2.59,0,0,0,1,1.39,5.51,5.51,0,0,1,1.38,1.31,4.17,4.17,0,0,1,.61,2.8,4.06,4.06,0,0,1-2.38,3.3A3.34,3.34,0,0,0,40.91,35.09Z"/><path class="cls-1" d="M32.48,35.88a4.76,4.76,0,0,0-2.09-3.61A8.62,8.62,0,0,0,25.81,31c-1-.05-2,0-2.94,0a9.76,9.76,0,0,0-3.63.76,4.81,4.81,0,0,0-3,3.18,7.26,7.26,0,0,0-.11,3,8.58,8.58,0,0,0,2.31,4.7,7.82,7.82,0,0,0,5.9,2.65,6.79,6.79,0,0,0,3-.67A9,9,0,0,0,32.48,35.88ZM20.11,40.57a5.9,5.9,0,0,1-1.25-4.93,2,2,0,0,1,1-1.29,3.89,3.89,0,0,1,1.9-.62c.6-.06,1.2-.07,1.67-.09l.45,0,1.1,0c.7,0,1.29,0,1.88.07a3.49,3.49,0,0,1,2.46,1.06,2.08,2.08,0,0,1,.51,1.31,6.05,6.05,0,0,1-1.16,4.28,5.29,5.29,0,0,1-4.74,2.23A5,5,0,0,1,20.11,40.57Z"/><path class="cls-1" d="M23.51,26.14A1.86,1.86,0,0,1,21.64,28l-.22,0A1.59,1.59,0,0,1,20,26.87a7.25,7.25,0,0,1-.22-.92l0-.11A1.42,1.42,0,0,0,18,24.64a1.35,1.35,0,0,0-1.31,1.08,3,3,0,0,0,0,.42,2,2,0,0,1-1.34,1.8A1.67,1.67,0,0,1,14,27.81,1.9,1.9,0,0,1,13,26.63a3,3,0,0,1,.12-1.72,5.54,5.54,0,0,1,4-3.88,4.43,4.43,0,0,1,.73-.1l.31,0a5.49,5.49,0,0,1,5.24,4.55A5.36,5.36,0,0,1,23.51,26.14Z"/><path class="cls-1" d="M36.44,26.33A1.69,1.69,0,0,1,34.85,28,1.61,1.61,0,0,1,33,26.81a8.41,8.41,0,0,1-.26-1.07,1.26,1.26,0,0,0-1.12-1.09,1.55,1.55,0,0,0-1.94,1,3,3,0,0,0-.08.49,2,2,0,0,1-.68,1.41,1.77,1.77,0,0,1-1.19.5,1.61,1.61,0,0,1-.61-.13,1.81,1.81,0,0,1-1.19-1.64,4.8,4.8,0,0,1,.9-2.91A5.39,5.39,0,0,1,30.14,21a5.78,5.78,0,0,1,.71-.1l.33,0a5.4,5.4,0,0,1,5.26,5.43Z"/><path class="cls-1" d="M24.29,41.67a3.55,3.55,0,0,1-3.4-3.43,3.63,3.63,0,0,1,3.33-3.38,3.58,3.58,0,0,1,3.47,3.42A3.52,3.52,0,0,1,24.29,41.67Zm0-5.1a1.58,1.58,0,0,0-1.72,1.69A1.62,1.62,0,0,0,24.31,40a1.71,1.71,0,1,0,0-3.43Z"/></svg>