<svg id="Calque_1" data-name="Calque 1" xmlns="http://www.w3.org/2000/svg" viewBox="0 0 50 50"><defs><style>.cls-1{fill:#2e2e2e;}</style></defs><title>icon_side6</title><path class="cls-1" d="M25.1,6.8H43.27a17.66,17.66,0,0,1,1.82,0,4.07,4.07,0,0,1,3.75,3.83c.05.6,0,1.21,0,1.82q0,12.92,0,25.84c0,.54,0,1.08,0,1.61a4,4,0,0,1-3.48,3.87,11.46,11.46,0,0,1-2,.11H6.6A14,14,0,0,1,5,43.9a4.21,4.21,0,0,1-4-4.08C.92,39,.93,38.21.93,37.4q0-12.42,0-24.83c0-.2,0-.4,0-.61C.8,8.39,3,6.71,6.12,6.77,12.44,6.88,18.77,6.8,25.1,6.8ZM5.74,29.36c2,.41,36.63.36,38.16,0,.34-2.63.24-16-.14-17.51h-38Zm26.87,6.43a1.94,1.94,0,0,0-3.88.1,1.94,1.94,0,0,0,3.88-.1Zm3.85,1.94a1.92,1.92,0,0,0,1.92-1.87,2,2,0,0,0-1.9-1.91,1.9,1.9,0,0,0-1.89,1.89A1.84,1.84,0,0,0,36.46,37.72Zm5.73,0a1.9,1.9,0,1,0-.08-3.79,1.9,1.9,0,0,0,.08,3.79Z"/></svg>