<svg id="Calque_1" data-name="Calque 1" xmlns="http://www.w3.org/2000/svg" viewBox="0 0 50 50"><defs><style>.cls-1{fill:#2e2e2e;}</style></defs><title>side_icon</title><path class="cls-1" d="M2.94,25l9-9.07c1.69-1.71,3.36-3.42,5.07-5.11a2.47,2.47,0,0,1,4.21,1,2.5,2.5,0,0,1-.76,2.52q-3.7,3.71-7.37,7.44l-.67.7H43.26a5.51,5.51,0,0,1,1.07.08,2.44,2.44,0,0,1,2,2.59,2.49,2.49,0,0,1-2.42,2.3H12.42c.23.26.35.41.49.56q3.75,3.79,7.5,7.58a2.5,2.5,0,0,1,.76,2.58,2.46,2.46,0,0,1-4.18,1c-2-2-4-4-6-6.05L3.36,25.47Z"/></svg>