<svg id="Calque_1" data-name="Calque 1" xmlns="http://www.w3.org/2000/svg" viewBox="0 0 50 50"><defs><style>.cls-1{fill:#2e2e2e;}</style></defs><title>icon_user</title><path class="cls-1" d="M24.36,43.6h-19c-.71,0-.71,0-.71-.71,0-1.46,0-2.91,0-4.37a5.57,5.57,0,0,1,1.66-4.08A14.88,14.88,0,0,1,11.77,31a32.74,32.74,0,0,1,13.85-2.49,31.15,31.15,0,0,1,14.23,3.94,14.09,14.09,0,0,1,2.79,2.26,5,5,0,0,1,1.43,3.74c0,1.51,0,3,0,4.52,0,.48-.14.61-.62.61Q33.91,43.58,24.36,43.6ZM9,39.27H39.68A2,2,0,0,0,38.85,37a12.7,12.7,0,0,0-1.65-1.11,28.38,28.38,0,0,0-13.32-3.1,28.73,28.73,0,0,0-9.79,1.94A14.42,14.42,0,0,0,9.82,37,2.06,2.06,0,0,0,9,39.27Z"/><path class="cls-1" d="M33.1,13.32a8.74,8.74,0,1,1-8.79-8.66A8.68,8.68,0,0,1,33.1,13.32ZM24.34,8.94a4.36,4.36,0,1,0,4.44,4.35A4.42,4.42,0,0,0,24.34,8.94Z"/></svg>