<svg id="Calque_1" data-name="Calque 1" xmlns="http://www.w3.org/2000/svg" viewBox="0 0 50 50"><defs><style>.cls-1{fill:#2e2e2e;}</style></defs><title>side_icon</title><path class="cls-1" d="M39.14,43.39H11L9.41,38.24c-.89-3-1.78-5.91-2.65-8.87-.1-.35-.25-.49-.62-.46s-.84,0-1.3,0V20.31H45.27v8.62a10.4,10.4,0,0,1-1.18,0c-.46-.05-.64.12-.78.56C42,34,40.6,38.53,39.25,43.06,39.22,43.16,39.18,43.26,39.14,43.39Zm3.29-20.23H7.69v2.9a2.7,2.7,0,0,0,.47,0c.46-.09.64.12.77.56,1.32,4.46,2.67,8.91,4,13.37a.66.66,0,0,0,.77.57q11.4,0,22.8,0a.61.61,0,0,0,.71-.53q2-6.64,4-13.28c.2-.67.2-.67.92-.69.11,0,.23,0,.34,0Z"/><path class="cls-1" d="M8.66,18.86l3-7.87c.25-.68.5-1.36.78-2,.05-.12.24-.19.38-.27s.12,0,.18,0h24.2a.57.57,0,0,1,.65.44c1.19,3.22,2.4,6.43,3.63,9.71l-.68,0c-.65,0-1.3,0-1.94,0a.51.51,0,0,1-.58-.41c-.79-2.15-1.6-4.29-2.39-6.43a.6.6,0,0,0-.67-.48q-10.11,0-20.22,0a.6.6,0,0,0-.67.47c-.77,2.12-1.58,4.23-2.35,6.35a.64.64,0,0,1-.75.5C10.36,18.83,9.55,18.86,8.66,18.86Z"/><path class="cls-1" d="M17.86,27.53h2.79v10H17.86Z"/><path class="cls-1" d="M26.44,37.59H23.66V27.53h2.79Z"/><path class="cls-1" d="M32.24,37.59H29.45V27.53h2.79Z"/></svg>