<?xml version="1.0" encoding="UTF-8"?>
<svg xmlns="http://www.w3.org/2000/svg" xmlns:xlink="http://www.w3.org/1999/xlink" width="50pt" height="50pt" viewBox="0 0 50 50" version="1.1">
<g id="surface1">
<path style=" stroke:none;fill-rule:nonzero;fill:#282828;fill-opacity:1;" d="M 24.832031 1.953125 C 12.253906 1.953125 2.015625 12.191406 2.015625 24.769531 C 2.015625 37.351563 12.253906 47.589844 24.832031 47.589844 C 31.574219 47.589844 37.644531 44.644531 41.816406 39.980469 C 42.3125 39.457031 42.488281 38.707031 42.269531 38.015625 C 42.050781 37.328125 41.476563 36.8125 40.769531 36.671875 C 40.058594 36.527344 39.328125 36.785156 38.859375 37.339844 C 35.40625 41.195313 30.421875 43.621094 24.832031 43.621094 C 14.402344 43.621094 5.984375 35.203125 5.984375 24.769531 C 5.984375 14.339844 14.402344 5.921875 24.832031 5.921875 C 30.421875 5.921875 35.40625 8.347656 38.859375 12.203125 C 39.328125 12.757813 40.058594 13.011719 40.769531 12.871094 C 41.476563 12.730469 42.050781 12.214844 42.269531 11.523438 C 42.488281 10.835938 42.3125 10.082031 41.816406 9.554688 C 37.644531 4.898438 31.574219 1.953125 24.832031 1.953125 Z M 38.640625 15.824219 C 37.832031 15.824219 37.105469 16.316406 36.804688 17.0625 C 36.496094 17.8125 36.679688 18.667969 37.257813 19.230469 L 40.8125 22.785156 L 22.785156 22.785156 C 22.070313 22.773438 21.40625 23.152344 21.046875 23.769531 C 20.683594 24.386719 20.683594 25.152344 21.046875 25.769531 C 21.40625 26.390625 22.070313 26.765625 22.785156 26.753906 L 40.8125 26.753906 L 37.257813 30.3125 C 36.738281 30.808594 36.527344 31.546875 36.710938 32.246094 C 36.890625 32.941406 37.433594 33.480469 38.128906 33.664063 C 38.824219 33.847656 39.566406 33.636719 40.0625 33.117188 L 46.828125 26.351563 C 47.324219 25.972656 47.613281 25.386719 47.613281 24.765625 C 47.609375 24.144531 47.320313 23.558594 46.824219 23.1875 L 40.0625 16.421875 C 39.6875 16.039063 39.175781 15.824219 38.640625 15.824219 Z "/>
</g>
</svg>
