<svg id="Calque_1" data-name="Calque 1" xmlns="http://www.w3.org/2000/svg" viewBox="0 0 90 22"><defs><style>.cls-1{fill:#fff;}</style></defs><title>btn-google-play</title><path class="cls-1" d="M52.87,12.42a.67.67,0,0,0-.13.18A.72.72,0,0,1,52.87,12.42Zm-.15.24h0a4.09,4.09,0,0,0-.55-.28A4.26,4.26,0,0,1,52.72,12.66Z"/><path class="cls-1" d="M31.24,18.1a5,5,0,0,1-6.63-3.17A4.94,4.94,0,0,1,29.42,8.6,4.57,4.57,0,0,1,32.68,10l-1,.75.11.16-.43-.29a3.5,3.5,0,0,0-5.46,3.07A3.5,3.5,0,0,0,30.28,17a2.81,2.81,0,0,0,2.23-2.55H29.39V13.12h4.38A4.27,4.27,0,0,1,31.24,18.1Z"/><path class="cls-1" d="M54.14,12.74a3.35,3.35,0,0,0-.07-.47c-.37.09-.78-.11-1.09.06l-.07.05,0,0a.67.67,0,0,0-.13.18l0,.06-.11-.06,0,0,0,0-.07,0-.07,0-.05,0-.07,0-.12-.05-.22-.08-.11,0a2.93,2.93,0,0,0-.42-.1A2.64,2.64,0,0,0,49,13a3.24,3.24,0,0,0-.32,4.07,3.12,3.12,0,0,0,1.64,1.21,2.6,2.6,0,0,0,2.44-.49c.08,1.13-.2,1.78-.88,2.06a1.82,1.82,0,0,1-2.37-1l-.84.34a2.58,2.58,0,0,0-.28.17,3,3,0,0,0,3.26,1.82,2.73,2.73,0,0,0,2.41-2.43,4.17,4.17,0,0,0,.06-.73Q54.15,15.42,54.14,12.74ZM50.8,17.12a1.85,1.85,0,0,1-1.27-2,1.78,1.78,0,0,1,1.53-1.7,1.48,1.48,0,0,1,1.53.76A6.6,6.6,0,0,1,53,15.25,1.8,1.8,0,0,1,50.8,17.12Z"/><path class="cls-1" d="M69.45,8.94c-1.13-.07-2.27,0-3.46,0v9.29h1.34V14.7c.75,0,1.44,0,2.13,0a2.88,2.88,0,0,0,0-5.76Zm.09,4.44a4.23,4.23,0,0,1-.6,0H67.37V10.25c.72,0,1.39,0,2.05,0a1.59,1.59,0,0,1,1.48,1.54A1.61,1.61,0,0,1,69.54,13.38Z"/><path class="cls-1" d="M80.59,14.55a2.37,2.37,0,0,0-2.1-2.39,4.22,4.22,0,0,0-1.33,0,2.17,2.17,0,0,0-1.79,1.36l1.15.49a1.56,1.56,0,0,1,1.92-.54,1.2,1.2,0,0,1,.83,1.13,3.33,3.33,0,0,0-3.14.14,1.91,1.91,0,0,0,0,3.33A2.31,2.31,0,0,0,79,17.82a1.41,1.41,0,0,1,.21-.16l.12.53h1.27C80.59,17,80.61,15.75,80.59,14.55Zm-3.23,2.6c-.47-.09-.75-.34-.79-.69a.88.88,0,0,1,.65-.9,2.4,2.4,0,0,1,2,.16A1.62,1.62,0,0,1,77.36,17.15Z"/><path class="cls-1" d="M37.51,12.11a3.07,3.07,0,0,0-3.13,3.14,3.11,3.11,0,0,0,3.16,3.19,3.14,3.14,0,0,0,3.15-3.15A3.11,3.11,0,0,0,37.51,12.11Zm0,5.08a1.92,1.92,0,0,1,0-3.84,1.81,1.81,0,0,1,1.72,1.93A1.82,1.82,0,0,1,37.53,17.19Z"/><path class="cls-1" d="M44.42,12.11a3.17,3.17,0,0,0,0,6.33,3.17,3.17,0,0,0,0-6.33Zm0,5.08a1.92,1.92,0,1,1,1.75-1.92A1.86,1.86,0,0,1,44.42,17.19Z"/><path class="cls-1" d="M58.82,16.21l4-1.71A2.81,2.81,0,0,0,60,12.12,3,3,0,0,0,57.14,15a3.15,3.15,0,0,0,2,3.27A3.06,3.06,0,0,0,62.84,17l-1-.66C60.52,17.5,59.37,17.46,58.82,16.21Zm.79-2.76a1.31,1.31,0,0,1,1.69.54l-2.68,1.13A1.53,1.53,0,0,1,59.6,13.45Z"/><path class="cls-1" d="M87,12.3c-.1.25-.18.45-.26.65-1.08,2.5-2.17,5-3.22,7.5-.21.5-.45.73-1,.64a6.76,6.76,0,0,0-.73,0c.4-.9.75-1.74,1.14-2.56a1.19,1.19,0,0,0,0-1.12C82.24,15.91,81.62,14.43,81,13c-.09-.2-.16-.41-.26-.65h1.46l1.65,4,1.6-4Z"/><rect class="cls-1" x="73.1" y="8.94" width="1.27" height="9.32"/><path class="cls-1" d="M56.4,18.21H55.13V8.94h1.22C56.49,9.44,56.54,17.24,56.4,18.21Z"/><path class="cls-1" d="M27.11,1.3A4.89,4.89,0,0,0,24.52,1V5.72c.73,0,1.38,0,2-.14a2,2,0,0,0,1.69-1.76A2.29,2.29,0,0,0,27.11,1.3Zm.11,3c-.48.69-1.21.62-2,.59V1.76c.82,0,1.58-.08,2,.69A1.7,1.7,0,0,1,27.22,4.35Z"/><path class="cls-1" d="M51.84,4a3.61,3.61,0,0,0-.48-.77c.72-.95.37-2-.77-2.15a13.23,13.23,0,0,0-1.82,0v4.6a15.47,15.47,0,0,0,2,0A1.26,1.26,0,0,0,51.84,4ZM49.46,1.75c.35,0,.68,0,1,0a.57.57,0,0,1,.56.55.6.6,0,0,1-.57.61,9.13,9.13,0,0,1-1,0Zm1,3.19c-.31,0-.62,0-1,0V3.66c.35,0,.65,0,1,0a.67.67,0,0,1,.72.63A.68.68,0,0,1,50.46,4.94Z"/><path class="cls-1" d="M39.74.94a2.33,2.33,0,0,0-2.39,2.42,2.35,2.35,0,1,0,4.7,0A2.32,2.32,0,0,0,39.74.94Zm0,4.09a1.58,1.58,0,0,1-1.6-1.69,1.58,1.58,0,0,1,1.61-1.68,1.63,1.63,0,0,1,1.62,1.69A1.63,1.63,0,0,1,39.71,5Z"/><path class="cls-1" d="M46.23,1.05V5.61a.68.68,0,0,1-.93-.37c-.47-.81-1-1.6-1.47-2.4a1.12,1.12,0,0,0-.39-.4V5.63h-.67V1.1c.72-.14.72-.15,1.08.43.53.85,1.06,1.71,1.69,2.55v-3Z"/><path class="cls-1" d="M70.2,3.81l.23-.15a1.42,1.42,0,0,0,.7-1.59,1.47,1.47,0,0,0-1.41-1c-.51,0-1,0-1.58,0V5.63h.73V3.88c.49,0,.5,0,.68.26a12.16,12.16,0,0,1,.69,1.07.81.81,0,0,0,1.13.38Zm-.82-.67-.48,0V1.76a7.38,7.38,0,0,1,.9,0,.65.65,0,0,1,.61.73.67.67,0,0,1-.64.64A2.31,2.31,0,0,1,69.38,3.14Z"/><path class="cls-1" d="M67.32,4.29a1.53,1.53,0,0,1-1.75,1.46A1.6,1.6,0,0,1,64,4.18c-.05-1,0-2.05,0-3.15h.6c0,.07.09.13.09.18,0,.71,0,1.43,0,2.14,0,.22,0,.45,0,.67.07.69.4,1,1,1s.92-.36.94-1.06,0-1.43,0-2.15V1.06h.7C67.34,2.15,67.4,3.23,67.32,4.29Z"/><path class="cls-1" d="M35.87,1.06A14.11,14.11,0,0,0,34,1V5.63h.74V3.83c.35,0,.61,0,.88,0a1.42,1.42,0,0,0,1.41-1.26A1.36,1.36,0,0,0,35.87,1.06Zm-.11,2.05a7.48,7.48,0,0,1-1,0V1.78a6.84,6.84,0,0,1,1,0,.61.61,0,0,1,.53.67A.64.64,0,0,1,35.75,3.12Z"/><path class="cls-1" d="M62.75,5.5a1.68,1.68,0,0,1-2.53-1.07l.55-.25c.12.18.22.36.35.51a.84.84,0,0,0,1,.31,1,1,0,0,0,.51-.46.53.53,0,0,0-.25-.69c-.21-.12-.44-.2-.67-.3a5.48,5.48,0,0,1-.73-.33A1.18,1.18,0,0,1,61,1.13a1.54,1.54,0,0,1,2.21.81l-.54.28c-.25-.28-.47-.62-.92-.57a.63.63,0,0,0-.63.41c-.1.32.11.51.37.63s.46.17.68.28a3.46,3.46,0,0,1,.8.46A1.3,1.3,0,0,1,62.75,5.5Z"/><path class="cls-1" d="M32.14,5.71a1.6,1.6,0,0,1-1.92-1.26l.26-.15a2.28,2.28,0,0,1,.26-.09c.06,0,.12.08.15.13a1,1,0,0,0,1,.7.69.69,0,0,0,.69-.52.61.61,0,0,0-.38-.71c-.2-.1-.41-.17-.61-.26a6.1,6.1,0,0,1-.67-.3,1.12,1.12,0,0,1-.59-1.18,1.2,1.2,0,0,1,.79-1,1.54,1.54,0,0,1,2.08.9l-.61.27a.87.87,0,0,0-.91-.56.61.61,0,0,0-.6.45c-.08.3.13.46.35.57s.75.3,1.11.47a1.23,1.23,0,0,1,.77,1A1.32,1.32,0,0,1,32.14,5.71Z"/><path class="cls-1" d="M56.48,4.92h1.94v.71H55.78V1.06H58.4l.06.65h-2V3h1.76l.06.69h-1.8Z"/><path class="cls-1" d="M55.13,5v.69H52.63a25.38,25.38,0,0,1,0-4.59h.62V5Z"/><path class="cls-1" d="M29.56,1v4.6l-.62,0V1Z"/><path class="cls-1" d="M47.81,1.05V5.64h-.63V1l.35,0A2.25,2.25,0,0,1,47.81,1.05Z"/><path class="cls-1" d="M18.59,10.18,2.57.93a.84.84,0,0,0-1.25.72v18.5a.84.84,0,0,0,1.25.72l16-9.25A.84.84,0,0,0,18.59,10.18Z"/></svg>