<?xml version="1.0" encoding="UTF-8"?>
<svg xmlns="http://www.w3.org/2000/svg" xmlns:xlink="http://www.w3.org/1999/xlink" width="24pt" height="24pt" viewBox="0 0 24 24" version="1.1">
<g id="surface1">
<path style=" stroke:none;fill-rule:nonzero;fill:#4E4E4E;fill-opacity:1;" d="M 10 1.429688 C 5.523438 1.429688 1.90625 5.046875 1.90625 9.523438 C 1.90625 14 5.523438 17.617188 10 17.617188 C 11.597656 17.617188 13.078125 17.148438 14.332031 16.355469 L 20.179688 22.203125 L 22.203125 20.179688 L 16.429688 14.417969 C 17.464844 13.058594 18.09375 11.371094 18.09375 9.523438 C 18.09375 5.046875 14.476563 1.429688 10 1.429688 Z M 10 3.332031 C 13.429688 3.332031 16.191406 6.09375 16.191406 9.523438 C 16.191406 12.953125 13.429688 15.714844 10 15.714844 C 6.570313 15.714844 3.808594 12.953125 3.808594 9.523438 C 3.808594 6.09375 6.570313 3.332031 10 3.332031 Z "/>
</g>
</svg>
