<svg id="Calque_1" data-name="Calque 1" xmlns="http://www.w3.org/2000/svg" viewBox="0 0 1.86 1.77"><title>star_480px</title><path d="M135.2,121.89a.06.06,0,0,1-.06-.07l.12-.38.06-.2a0,0,0,0,0,0,0l-.46-.34h0a.05.05,0,0,1,0-.06.05.05,0,0,1,.06,0h.6a0,0,0,0,0,0,0l.19-.56a.06.06,0,0,1,.05,0,.05.05,0,0,1,.06,0l.13.39.06.18a0,0,0,0,0,0,0h.59s.08,0,.06.07l0,0-.47.35a0,0,0,0,0,0,0l.17.55v0a.05.05,0,0,1-.08,0l-.08-.06-.41-.29a0,0,0,0,0,0,0l-.48.34Z" transform="translate(-134.8 -120.12)" style="fill:#c8c8c8"/></svg>