<?xml version="1.0" encoding="UTF-8"?>
<svg xmlns="http://www.w3.org/2000/svg" xmlns:xlink="http://www.w3.org/1999/xlink" width="50pt" height="50pt" viewBox="0 0 50 50" version="1.1">
<g id="surface1">
<path style=" stroke:none;fill-rule:nonzero;fill:#FFFFFF;fill-opacity:1;" d="M 24.671875 4.933594 C 13.769531 4.933594 4.933594 13.769531 4.933594 24.671875 C 4.933594 28.371094 5.976563 31.828125 7.75 34.789063 L 5.113281 44.40625 L 14.9375 41.832031 C 17.808594 43.464844 21.132813 44.40625 24.671875 44.40625 C 35.574219 44.40625 44.40625 35.574219 44.40625 24.671875 C 44.40625 13.769531 35.574219 4.933594 24.671875 4.933594 Z M 17.914063 15.464844 C 18.234375 15.464844 18.566406 15.464844 18.851563 15.476563 C 19.203125 15.484375 19.582031 15.507813 19.949219 16.320313 C 20.386719 17.289063 21.335938 19.703125 21.457031 19.949219 C 21.582031 20.191406 21.664063 20.480469 21.496094 20.804688 C 21.335938 21.132813 21.253906 21.332031 21.015625 21.621094 C 20.769531 21.910156 20.5 22.253906 20.277344 22.46875 C 20.03125 22.71875 19.78125 22.980469 20.066406 23.46875 C 20.347656 23.964844 21.332031 25.5625 22.78125 26.855469 C 24.652344 28.527344 26.226563 29.035156 26.714844 29.277344 C 27.203125 29.527344 27.484375 29.488281 27.773438 29.160156 C 28.0625 28.839844 28.996094 27.734375 29.324219 27.246094 C 29.644531 26.757813 29.972656 26.84375 30.414063 27.003906 C 30.863281 27.164063 33.265625 28.347656 33.761719 28.597656 C 34.25 28.839844 34.570313 28.960938 34.695313 29.160156 C 34.820313 29.367188 34.820313 30.34375 34.410156 31.480469 C 34.007813 32.625 32.015625 33.722656 31.121094 33.800781 C 30.214844 33.890625 29.375 34.210938 25.25 32.585938 C 20.277344 30.625 17.140625 25.53125 16.890625 25.203125 C 16.648438 24.882813 14.90625 22.558594 14.90625 20.15625 C 14.90625 17.746094 16.164063 16.5625 16.609375 16.074219 C 17.058594 15.585938 17.585938 15.464844 17.914063 15.464844 Z "/>
</g>
</svg>
