<?xml version="1.0" encoding="UTF-8"?>
<svg xmlns="http://www.w3.org/2000/svg" xmlns:xlink="http://www.w3.org/1999/xlink" width="20pt" height="20pt" viewBox="0 0 20 20" version="1.1">
<g id="surface1">
<path style=" stroke:none;fill-rule:nonzero;fill:#FFFFFF;fill-opacity:1;" d="M 17.816406 5.753906 C 17.660156 4.882813 16.90625 4.246094 16.03125 4.046875 C 14.722656 3.769531 12.300781 3.570313 9.683594 3.570313 C 7.0625 3.570313 4.605469 3.769531 3.292969 4.046875 C 2.421875 4.246094 1.667969 4.839844 1.507813 5.753906 C 1.347656 6.746094 1.191406 8.136719 1.191406 9.921875 C 1.191406 11.707031 1.347656 13.09375 1.546875 14.085938 C 1.707031 14.960938 2.460938 15.59375 3.332031 15.792969 C 4.722656 16.070313 7.101563 16.269531 9.722656 16.269531 C 12.34375 16.269531 14.722656 16.070313 16.113281 15.792969 C 16.984375 15.59375 17.738281 15 17.898438 14.085938 C 18.054688 13.09375 18.253906 11.667969 18.292969 9.921875 C 18.214844 8.136719 18.015625 6.746094 17.816406 5.753906 Z M 7.539063 12.699219 L 7.539063 7.144531 L 12.378906 9.921875 Z "/>
</g>
</svg>
