<svg id="Calque_1" data-name="Calque 1" xmlns="http://www.w3.org/2000/svg" viewBox="0 0 168.97 47.52"><defs><style>.cls-1{fill:#282828;}</style></defs><title>logo_market</title><path class="cls-1" d="M100,145.51a12.14,12.14,0,1,1,0-24.27,11.91,11.91,0,0,1,6.11,1.61,10.7,10.7,0,0,1,4.18,4.32l-5.1,3a5.21,5.21,0,0,0-2.09-2.25,6.08,6.08,0,0,0-3.15-.83,5.94,5.94,0,0,0-4.41,1.77,6.17,6.17,0,0,0-1.75,4.53,6.11,6.11,0,0,0,1.75,4.48,5.94,5.94,0,0,0,4.41,1.77,6.3,6.3,0,0,0,3.19-.8,5.06,5.06,0,0,0,2.09-2.23l5.15,2.94a11.5,11.5,0,0,1-4.27,4.34A11.79,11.79,0,0,1,100,145.51Z" transform="translate(-49.16 -102)"/><path class="cls-1" d="M126.29,121.24a8.32,8.32,0,0,1,6.23,2.53,9.59,9.59,0,0,1,2.46,7v14.11H129V131.49A4.71,4.71,0,0,0,127.8,128a4.52,4.52,0,0,0-3.31-1.22,4.88,4.88,0,0,0-3.68,1.43,5.93,5.93,0,0,0-1.38,4.27v12.41h-5.93V112.69h5.93v11.77Q121.6,121.24,126.29,121.24Z" transform="translate(-49.16 -102)"/><path class="cls-1" d="M145,135.81q1.19,4.32,6.48,4.32a6.06,6.06,0,0,0,5.15-2.3l4.78,2.76q-3.4,4.92-10,4.92a12.37,12.37,0,0,1-9.15-3.45A12.13,12.13,0,0,1,151,121.24a11,11,0,0,1,8.34,3.49,12.13,12.13,0,0,1,3.29,8.64,14,14,0,0,1-.23,2.44Zm-.09-4.6h11.72a5.56,5.56,0,0,0-2.09-3.49,6,6,0,0,0-3.61-1.15,6.24,6.24,0,0,0-4,1.22A5.81,5.81,0,0,0,145,131.21Z" transform="translate(-49.16 -102)"/><path class="cls-1" d="M179.19,127.58H174v9.56a2.27,2.27,0,0,0,.6,1.75,2.74,2.74,0,0,0,1.75.62,25.68,25.68,0,0,0,2.85,0v5.38q-6.11.69-8.62-1.15t-2.5-6.57v-9.56h-4v-5.7h4v-4.64l5.93-1.79v6.44h5.19Z" transform="translate(-49.16 -102)"/><path class="cls-1" d="M186.32,119.12a3.69,3.69,0,0,1-3.63-3.63,3.57,3.57,0,0,1,1.08-2.57,3.45,3.45,0,0,1,2.55-1.1,3.5,3.5,0,0,1,2.6,1.1,3.57,3.57,0,0,1,1.08,2.57,3.49,3.49,0,0,1-1.08,2.55A3.54,3.54,0,0,1,186.32,119.12Zm-2.94,25.74v-23h5.93v23Z" transform="translate(-49.16 -102)"/><path class="cls-1" d="M212.2,121.88h5.93v23H212.2v-2.71a9,9,0,0,1-7.49,3.36,10.41,10.41,0,0,1-7.88-3.52,12.94,12.94,0,0,1,0-17.24,10.41,10.41,0,0,1,7.88-3.52,9,9,0,0,1,7.49,3.36ZM201.26,138a6.12,6.12,0,0,0,4.55,1.82,6.2,6.2,0,0,0,4.57-1.82,6.9,6.9,0,0,0,0-9.33,6.2,6.2,0,0,0-4.57-1.82,6.13,6.13,0,0,0-4.55,1.82,7,7,0,0,0,0,9.33Z" transform="translate(-49.16 -102)"/><path class="cls-1" d="M81.44,115.67h-31c-1,0-1.33.29-1.33,1.35q0,7.78,0,15.57t0,15.57c0,1.05.3,1.37,1.33,1.37h31c1.06,0,1.36-.3,1.36-1.34q0-15.54,0-31.08C82.86,115.92,82.61,115.67,81.44,115.67Zm-4,28.51H71.72v-2.63a8.74,8.74,0,0,1-7.26,3.25,10.09,10.09,0,0,1-7.64-3.41,12.54,12.54,0,0,1,0-16.7,10.09,10.09,0,0,1,7.64-3.41,8.75,8.75,0,0,1,7.26,3.25v-2.63h5.75Z" transform="translate(-49.16 -102)"/><path class="cls-1" d="M65.53,126.76a5.94,5.94,0,0,0-4.41,1.76,6.75,6.75,0,0,0,0,9,5.93,5.93,0,0,0,4.41,1.76A6,6,0,0,0,70,137.56a6.69,6.69,0,0,0,0-9A6,6,0,0,0,65.53,126.76Z" transform="translate(-49.16 -102)"/><path class="cls-1" d="M58.84,112.79H56a9.71,9.71,0,0,1,4.21-8.87A9.56,9.56,0,0,1,71,103.41a9.79,9.79,0,0,1,5,9.37h-2.8a7.23,7.23,0,0,0-2.66-6.26,7,7,0,0,0-4.67-1.6A7.26,7.26,0,0,0,58.84,112.79Z" transform="translate(-49.16 -102)"/></svg>